<svg width="368" height="368" viewBox="0 0 368 368" fill="none" xmlns="http://www.w3.org/2000/svg">
<g filter="url(#filter0_i_446_226)">
<path d="M73.9999 189C65.7157 189 58.9069 195.74 59.8985 203.965C63.2306 231.603 75.7246 257.501 95.6116 277.388C119.054 300.83 150.848 314 184 314C217.152 314 248.946 300.83 272.388 277.388C292.275 257.501 304.769 231.603 308.101 203.965C309.093 195.74 302.284 189 294 189L73.9999 189Z" fill="#1B70F0"/>
<path d="M184 94C236.467 94 279 136.533 279 189C279 241.467 236.467 284 184 284C131.533 284 89 241.467 89 189C89 136.533 131.533 94 184 94Z" fill="url(#paint0_linear_446_226)"/>
<path d="M154 176.5C154 175.119 152.881 174 151.5 174C150.119 174 149 175.119 149 176.5V215.5C149 216.881 150.119 218 151.5 218C152.881 218 154 216.881 154 215.5L154 176.5Z" fill="white"/>
<path d="M154 227.5C154 226.119 152.881 225 151.5 225C150.119 225 149 226.119 149 227.5V233.5C149 234.881 150.119 236 151.5 236C152.881 236 154 234.881 154 233.5L154 227.5Z" fill="white"/>
<path d="M216.5 177C217.881 177 219 178.119 219 179.5V209.5C219 210.881 217.881 212 216.5 212C215.119 212 214 210.881 214 209.5V179.5C214 178.119 215.119 177 216.5 177Z" fill="white"/>
<path d="M219 221.5C219 220.119 217.881 219 216.5 219C215.119 219 214 220.119 214 221.5V233.5C214 234.881 215.119 236 216.5 236C217.881 236 219 234.881 219 233.5V221.5Z" fill="white"/>
<path d="M184 189C185.381 189 186.5 190.119 186.5 191.5V227.5C186.5 228.881 185.381 230 184 230C182.619 230 181.5 228.881 181.5 227.5V191.5C181.5 190.119 182.619 189 184 189Z" fill="white"/>
<path d="M186.5 239.5C186.5 238.119 185.381 237 184 237C182.619 237 181.5 238.119 181.5 239.5V251.5C181.5 252.881 182.619 254 184 254C185.381 254 186.5 252.881 186.5 251.5V239.5Z" fill="white"/>
<path d="M109 77.125C109 74.3636 106.75 72.0877 104.018 72.488C101.217 72.8982 98.4718 73.6537 95.8453 74.7416C91.6747 76.4691 87.8852 79.0012 84.6932 82.1932C81.5012 85.3852 78.9691 89.1747 77.2416 93.3453C76.1537 95.9718 75.3982 98.7172 74.988 101.518C74.5877 104.25 76.8636 106.5 79.625 106.5L104 106.5C106.761 106.5 109 104.261 109 101.5V77.125Z" fill="url(#paint1_linear_446_226)"/>
<path d="M93.375 61.5C93.375 58.7386 91.1248 56.4627 88.3926 56.863C85.5922 57.2732 82.8468 58.0287 80.2203 59.1166C76.0497 60.8441 72.2602 63.3762 69.0682 66.5682C65.8762 69.7602 63.3441 73.5497 61.6166 77.7203C60.5287 80.3468 59.7732 83.0922 59.363 85.8926C58.9627 88.6248 61.2386 90.875 64 90.875L88.375 90.875C91.1364 90.875 93.375 88.6364 93.375 85.875V61.5Z" fill="url(#paint2_linear_446_226)"/>
<path d="M129 104.961L183.959 136.692V200.154L129 168.423V104.961Z" fill="#0E5CD3"/>
<path d="M184 200.154L238.959 168.423V104.961L184 136.692V200.154Z" fill="#0F65E6"/>
<path d="M184 73.2308L239 104.962L184 136.692L129 104.962L184 73.2308Z" fill="#1B70F0"/>
<path d="M284 94C284 89.8579 287.358 86.5 291.5 86.5C295.642 86.5 299 89.8579 299 94C299 98.1421 295.642 101.5 291.5 101.5C287.358 101.5 284 98.1421 284 94Z" fill="#1B70F0"/>
<path d="M284 69C284 64.8579 287.358 61.5 291.5 61.5C295.642 61.5 299 64.8579 299 69C299 73.1421 295.642 76.5 291.5 76.5C287.358 76.5 284 73.1421 284 69Z" fill="#1B70F0"/>
<path d="M259 69C259 64.8579 262.358 61.5 266.5 61.5C270.642 61.5 274 64.8579 274 69C274 73.1421 270.642 76.5 266.5 76.5C262.358 76.5 259 73.1421 259 69Z" fill="#1B70F0"/>
</g>
<defs>
<filter id="filter0_i_446_226" x="0" y="0" width="368" height="368" filterUnits="userSpaceOnUse" color-interpolation-filters="sRGB">
<feFlood flood-opacity="0" result="BackgroundImageFix"/>
<feBlend mode="normal" in="SourceGraphic" in2="BackgroundImageFix" result="shape"/>
<feColorMatrix in="SourceAlpha" type="matrix" values="0 0 0 0 0 0 0 0 0 0 0 0 0 0 0 0 0 0 127 0" result="hardAlpha"/>
<feOffset/>
<feGaussianBlur stdDeviation="1.5"/>
<feComposite in2="hardAlpha" operator="arithmetic" k2="-1" k3="1"/>
<feColorMatrix type="matrix" values="0 0 0 0 1 0 0 0 0 1 0 0 0 0 1 0 0 0 0.8 0"/>
<feBlend mode="normal" in2="shape" result="effect1_innerShadow_446_226"/>
</filter>
<linearGradient id="paint0_linear_446_226" x1="184" y1="94" x2="184" y2="284" gradientUnits="userSpaceOnUse">
<stop stop-color="#F3F8FF"/>
<stop offset="1" stop-color="#96C6FF"/>
</linearGradient>
<linearGradient id="paint1_linear_446_226" x1="112.125" y1="111.188" x2="65.2501" y2="61.7084" gradientUnits="userSpaceOnUse">
<stop stop-color="#F3F8FF"/>
<stop offset="1" stop-color="#BFDCFF"/>
</linearGradient>
<linearGradient id="paint2_linear_446_226" x1="96.5001" y1="95.5626" x2="49.6251" y2="46.0834" gradientUnits="userSpaceOnUse">
<stop stop-color="#F3F8FF"/>
<stop offset="1" stop-color="#BFDCFF"/>
</linearGradient>
</defs>
</svg>
