<svg width="200" height="200" viewBox="0 0 200 200" fill="none" xmlns="http://www.w3.org/2000/svg">
<path d="M66.1217 134.205L65.8024 134.513C60.789 139.607 54.9874 142.298 49.0112 142.298C36.53 142.298 27.4758 132.961 27.4758 120.082C27.4758 107.222 36.53 97.8698 49.0112 97.8698C54.9874 97.8698 60.789 100.576 65.8024 105.69L66.1217 105.993L74.1482 96.3127L73.9337 96.054C67.2591 88.1891 59.2475 84.3635 49.4003 84.3635C39.528 84.3635 30.4889 87.6817 23.9839 93.6562C16.9002 100.133 13.1738 109.267 13.1738 120.082C13.1738 130.897 16.9002 140.05 23.9839 146.527C30.4889 152.536 39.528 155.83 49.4003 155.83C59.2475 155.83 67.2591 151.999 73.9337 144.129L74.1482 143.89L66.1217 134.205Z" fill="white"/>
<path d="M82.2559 154.509H96.4331V85.4808H82.2559V154.509Z" fill="white"/>
<path d="M151.976 139.503C148.189 141.802 144.672 142.961 141.51 142.961C136.925 142.961 134.85 140.543 134.85 135.17V98.5419H149.302V85.548H134.85V64.0674L120.957 71.4896V85.548H108.965V98.5419H120.957V137.503C120.957 148.114 127.263 155.377 136.681 155.566C143.071 155.691 146.922 153.791 149.257 152.398L149.407 152.303L152.814 138.991L151.976 139.503Z" fill="white"/>
<path d="M163.713 154.509H177.91V85.4808H163.713V154.509Z" fill="white"/>
<path d="M186.18 73.3811C173.224 55.0843 151.714 44.1698 129.829 44.1698C107.95 44.1698 86.4346 55.0843 73.5044 73.3811L72.8359 74.3213H89.1483L89.3279 74.1273C100.427 62.6955 114.924 56.6563 129.829 56.6563C144.735 56.6563 159.222 62.6955 170.346 74.1273L170.526 74.3213H186.828L186.18 73.3811Z" fill="white"/>
</svg>
