<svg width="200" height="200" viewBox="0 0 200 200" fill="none" xmlns="http://www.w3.org/2000/svg">
<path d="M29.9925 70C13.4285 70 0 83.4314 0 99.9995C0 116.569 13.4285 130 29.9925 130C46.5573 130 59.985 116.569 59.985 99.9995C59.985 83.4324 46.558 70.0014 29.9921 70.0014L29.9925 70ZM43.7469 113.268C43.2082 114.152 42.0571 114.429 41.1764 113.89C34.1334 109.584 25.2685 108.612 14.8284 110.997C13.8224 111.228 12.8196 110.597 12.5904 109.591C12.3601 108.585 12.9879 107.582 13.9965 107.353C25.4214 104.74 35.2215 105.865 43.1269 110.696C44.008 111.237 44.2873 112.387 43.7465 113.269L43.7469 113.268ZM47.4179 105.1C46.7396 106.201 45.3005 106.547 44.2014 105.871C36.1412 100.915 23.8506 99.4793 14.3149 102.375C13.0782 102.748 11.772 102.051 11.3967 100.816C11.0242 99.5793 11.7215 98.2753 12.956 97.8991C23.8485 94.5933 37.3894 96.1946 46.6475 101.885C47.7471 102.562 48.0944 104.002 47.4175 105.101L47.4179 105.1ZM47.7331 96.5944C38.0652 90.8515 22.1182 90.3235 12.889 93.1253C11.407 93.5748 9.83977 92.738 9.39065 91.2556C8.94153 89.7725 9.77746 88.2059 11.2605 87.7553C21.855 84.5383 39.467 85.1599 50.5961 91.7682C51.9291 92.5596 52.3664 94.2816 51.5763 95.6132C50.7884 96.9466 49.0621 97.3861 47.7334 96.5944H47.7331ZM81.5997 97.6949C76.4212 96.4597 75.4993 95.5928 75.4993 93.7711C75.4993 92.0502 77.1192 90.892 79.5281 90.892C81.8633 90.892 84.1787 91.7715 86.6062 93.582C86.6797 93.6368 86.7717 93.6587 86.8623 93.6443C86.9529 93.6307 87.0332 93.5809 87.0862 93.5061L89.6147 89.9409C89.7186 89.794 89.6903 89.5916 89.5503 89.4795C86.6611 87.1606 83.4076 86.0332 79.6048 86.0332C74.0134 86.0332 70.1078 89.3895 70.1078 94.1917C70.1078 99.3414 73.4769 101.165 79.299 102.572C84.2543 103.714 85.0906 104.671 85.0906 106.38C85.0906 108.275 83.3994 109.453 80.6778 109.453C77.6551 109.453 75.1896 108.435 72.4314 106.045C72.363 105.986 72.2692 105.959 72.1825 105.964C72.0912 105.972 72.0077 106.014 71.9497 106.084L69.1146 109.459C68.9957 109.599 69.0108 109.808 69.1483 109.929C72.3573 112.795 76.3041 114.309 80.5633 114.309C86.5884 114.309 90.4818 111.016 90.4818 105.919C90.4926 101.617 87.9175 99.2343 81.6105 97.6996L81.5997 97.6949ZM104.113 92.5865C101.501 92.5865 99.3592 93.6153 97.5928 95.7235V93.3506C97.5928 93.1632 97.441 93.0106 97.254 93.0106H92.6171C92.4298 93.0106 92.2783 93.1632 92.2783 93.3506V119.718C92.2783 119.905 92.4298 120.057 92.6171 120.057H97.254C97.441 120.057 97.5928 119.905 97.5928 119.718V111.395C99.3596 113.378 101.502 114.347 104.113 114.347C108.966 114.347 113.878 110.61 113.878 103.468C113.885 96.3236 108.971 92.5861 104.118 92.5861L104.113 92.5865ZM108.486 103.468C108.486 107.105 106.246 109.643 103.039 109.643C99.8682 109.643 97.4765 106.99 97.4765 103.468C97.4765 99.9465 99.8682 97.2926 103.039 97.2926C106.194 97.2923 108.486 99.8888 108.486 103.468L108.486 103.468ZM126.469 92.5865C120.219 92.5865 115.323 97.3997 115.323 103.546C115.323 109.625 120.186 114.387 126.392 114.387C132.664 114.387 137.575 109.59 137.575 103.468C137.575 97.3668 132.697 92.5872 126.468 92.5872L126.469 92.5865ZM126.469 109.679C123.145 109.679 120.639 107.008 120.639 103.466C120.639 99.9092 123.058 97.3281 126.392 97.3281C129.737 97.3281 132.26 99.9994 132.26 103.544C132.26 107.1 129.825 109.679 126.469 109.679H126.469ZM150.92 93.0106H145.817V87.7925C145.817 87.6055 145.666 87.4529 145.479 87.4529H140.842C140.655 87.4529 140.502 87.6055 140.502 87.7925V93.0106H138.273C138.086 93.0106 137.935 93.1632 137.935 93.3506V97.3367C137.935 97.5237 138.086 97.6766 138.273 97.6766H140.502V107.991C140.502 112.159 142.576 114.272 146.667 114.272C148.33 114.272 149.71 113.928 151.01 113.191C151.116 113.132 151.182 113.018 151.182 112.897V109.101C151.182 108.984 151.121 108.873 151.021 108.812C150.92 108.748 150.794 108.745 150.69 108.796C149.797 109.246 148.934 109.453 147.968 109.453C146.481 109.453 145.817 108.778 145.817 107.263V97.6785H150.92C151.107 97.6785 151.258 97.5259 151.258 97.3385V93.3528C151.265 93.1654 151.114 93.0128 150.925 93.0128L150.92 93.0106ZM168.698 93.031V92.3901C168.698 90.5047 169.421 89.664 171.042 89.664C172.008 89.664 172.785 89.856 173.655 90.1461C173.762 90.1798 173.873 90.163 173.96 90.0989C174.05 90.0347 174.1 89.9319 174.1 89.823V85.9146C174.1 85.7653 174.004 85.6331 173.86 85.589C172.942 85.3157 171.766 85.0352 170.006 85.0352C165.724 85.0352 163.46 87.4475 163.46 92.009V92.9905H161.232C161.045 92.9905 160.892 93.1431 160.892 93.3301V97.3367C160.892 97.5237 161.045 97.6766 161.232 97.6766H163.46V113.586C163.46 113.773 163.611 113.926 163.798 113.926H168.435C168.622 113.926 168.775 113.773 168.775 113.586V97.6777H173.104L179.736 113.583C178.983 115.254 178.243 115.586 177.232 115.586C176.415 115.586 175.555 115.342 174.675 114.861C174.593 114.815 174.494 114.808 174.405 114.835C174.317 114.867 174.242 114.933 174.205 115.019L172.633 118.467C172.558 118.63 172.622 118.822 172.779 118.906C174.42 119.795 175.901 120.174 177.731 120.174C181.155 120.174 183.048 118.579 184.716 114.287L192.76 93.4953C192.801 93.3907 192.789 93.2725 192.725 93.1797C192.661 93.0876 192.558 93.0321 192.446 93.0321H187.618C187.474 93.0321 187.344 93.1242 187.297 93.2599L182.352 107.388L176.936 93.2506C176.887 93.1192 176.76 93.0321 176.619 93.0321H168.697L168.698 93.031ZM158.391 93.0106H153.754C153.566 93.0106 153.414 93.1632 153.414 93.3506V113.586C153.414 113.773 153.566 113.926 153.754 113.926H158.391C158.577 113.926 158.73 113.773 158.73 113.586V93.352C158.731 93.3073 158.722 93.263 158.705 93.2217C158.688 93.1804 158.663 93.1429 158.631 93.1113C158.599 93.0797 158.562 93.0546 158.52 93.0376C158.479 93.0206 158.435 93.0119 158.39 93.012L158.391 93.0106ZM156.098 83.7971C154.261 83.7971 152.771 85.2845 152.771 87.1219C152.771 88.9604 154.262 90.4496 156.098 90.4496C157.935 90.4496 159.424 88.9604 159.424 87.1219C159.424 85.2849 157.934 83.7971 156.1 83.7971H156.098ZM196.72 99.5166C194.885 99.5166 193.457 98.0424 193.457 96.2523C193.457 94.4622 194.903 92.9712 196.737 92.9712C198.572 92.9712 200 94.445 200 96.2337C200 98.0238 198.553 99.5166 196.719 99.5166H196.72ZM196.738 93.2958C195.066 93.2958 193.801 94.6248 193.801 96.2523C193.801 97.8791 195.057 99.1902 196.721 99.1902C198.392 99.1902 199.658 97.8622 199.658 96.2337C199.658 94.6069 198.401 93.2958 196.739 93.2958H196.738ZM197.461 96.5693L198.384 97.8619H197.606L196.775 96.6761H196.06V97.8619H195.409V94.4357H196.936C197.732 94.4357 198.256 94.843 198.256 95.5287C198.259 96.0904 197.933 96.4336 197.464 96.5693L197.461 96.5693ZM196.91 95.0236H196.06V96.1072H196.91C197.334 96.1072 197.587 95.8998 197.587 95.5649C197.587 95.2124 197.332 95.0236 196.91 95.0236L196.91 95.0236Z" fill="white"/>
</svg>
