<svg width="200" height="200" viewBox="0 0 200 200" fill="none" xmlns="http://www.w3.org/2000/svg">
<g clip-path="url(#clip0_2416_282)">
<path fill-rule="evenodd" clip-rule="evenodd" d="M49.4182 91.2806C49.4182 103.506 43.2222 113.172 33.8939 113.172C24.7758 113.172 18.2338 103.917 18.2338 91.1397C18.2338 78.9147 24.4275 69.2481 33.7558 69.2481C42.8751 69.2481 49.4182 78.5029 49.4182 91.2806ZM59.6508 90.9362C59.6508 77.1918 49.0687 66.2779 33.8939 66.2779C19.9033 66.2779 8 76.2238 8 91.4829C8 105.227 18.5809 116.14 33.7558 116.14C47.7464 116.14 59.6508 106.201 59.6508 90.9362ZM82.2012 95.905C82.2012 100.74 79.9745 104.884 76.494 104.884C73.1527 104.884 70.5081 101.223 70.5081 95.6293C70.5081 90.864 72.7348 86.6502 76.285 86.6502C79.5565 86.6502 82.2012 90.3102 82.2012 95.905ZM105.875 76.9149C105.875 73.4608 102.742 70.9059 96.964 70.9059C89.0288 70.9059 82.9037 76.0179 82.9037 83.822C82.9037 84.4433 82.9733 84.9273 82.9733 85.4112C80.9174 84.5751 78.7173 84.1529 76.4987 84.1687C70.2354 84.1687 62.717 87.9672 62.717 96.1867C62.7591 98.1433 63.3321 100.051 64.3744 101.706C65.4167 103.361 66.8889 104.7 68.6332 105.58C63.0641 106.338 59.8634 109.31 59.8634 113.937C59.8634 118.633 63.6226 122.018 70.6521 121.189L80.8151 119.947C85.8978 119.326 87.5672 121.119 87.5672 123.745C87.5672 128.304 83.252 131.965 76.3605 131.965C70.8611 131.965 68.8422 130.03 68.8422 127.267C68.8422 126.853 68.913 126.3 68.913 125.886C68.9374 125.514 68.8853 125.141 68.7598 124.789C68.6344 124.438 68.4382 124.117 68.1836 123.845C67.9289 123.573 67.6212 123.356 67.2796 123.208C66.938 123.061 66.5697 122.985 66.1975 122.986C65.7615 122.972 65.3277 123.053 64.9252 123.222C64.5228 123.39 64.161 123.643 63.8642 123.964C63.5674 124.284 63.3425 124.665 63.2045 125.08C63.0665 125.494 63.0186 125.934 63.0641 126.369C63.0641 130.928 67.4502 135.007 76.4302 135.007C86.5235 135.007 92.9274 128.514 92.9274 121.056C92.9274 115.115 88.1245 111.869 81.5117 112.698L69.8859 114.147C66.0582 114.631 64.8752 113.388 64.8752 111.454C64.8752 109.174 67.3817 107.38 76.0819 107.38H76.2212C82.5554 107.38 90.0041 103.58 90.0041 95.3607C90.0124 92.7596 89.015 90.2565 87.2213 88.3767C86.5917 87.0415 86.3048 85.5699 86.3866 84.0954C86.3866 78.0178 90.5613 74.5648 94.8778 74.5648C96.6877 74.5648 97.2391 74.8405 97.2391 76.0842C97.2391 76.4286 97.1694 76.7055 97.1694 77.1196C97.2282 78.2543 97.7262 79.3212 98.5575 80.0936C99.3888 80.8661 100.488 81.2831 101.621 81.2562C102.754 81.2292 103.832 80.7603 104.626 79.9492C105.42 79.1381 105.867 78.0487 105.872 76.9125M127.449 113.172L124.039 112.827C123.791 112.799 123.565 112.675 123.409 112.481C123.253 112.287 123.179 112.039 123.204 111.791V64L110.952 67.1086V68.5582L114.433 69.6634C114.675 69.7429 114.882 69.9026 115.022 70.1162C115.161 70.3298 115.223 70.5845 115.199 70.8385V111.587C115.191 111.776 115.144 111.962 115.062 112.133C114.979 112.304 114.862 112.455 114.717 112.579C114.573 112.702 114.405 112.794 114.224 112.849C114.043 112.904 113.852 112.921 113.664 112.899L110.558 112.962L107.262 112.899C107.073 112.921 106.883 112.904 106.702 112.849C106.52 112.794 106.352 112.702 106.208 112.579C106.064 112.455 105.947 112.304 105.864 112.133C105.781 111.962 105.735 111.776 105.727 111.587V84.0291L93.4787 87.1377V88.5873L96.958 89.6925C97.2 89.772 97.4077 89.9317 97.5469 90.1453C97.6862 90.3589 97.7488 90.6136 97.7243 90.8676V111.794C97.7492 112.042 97.6755 112.289 97.5192 112.483C97.3629 112.677 97.1367 112.801 96.8896 112.829L94.036 113.175V115.385H127.448V113.176L127.449 113.172ZM191 87.3436V85.203H179.096V87.2738L181.88 87.8264C182.855 88.0335 183.133 88.7944 182.506 90.3114L176.104 105.645C175.825 106.266 175.476 106.266 175.267 105.645L169.282 90.3114C168.654 88.7234 169.003 88.0335 169.976 87.8264L172.761 87.2738V85.203H147.983V87.2738L150.767 87.8264C151.741 88.0335 152.089 88.7944 151.463 90.3114L145.268 106.473C144.989 107.096 144.642 107.096 144.433 106.473L138.167 90.3114C137.611 88.7234 137.889 88.0335 138.864 87.8264L141.648 87.2738V85.203H125.917V87.3436L127.452 87.688C127.922 87.7633 128.363 87.9632 128.73 88.2669C129.097 88.5707 129.376 88.9673 129.539 89.4156L140.19 115.385H144.993L155.643 89.4156C156.199 88.0335 156.824 87.4809 157.94 87.4809H158.356C158.85 87.47 159.333 87.6283 159.725 87.9294C160.117 88.2306 160.395 88.6567 160.513 89.1375L171.652 116.074L168.657 123.118C166.709 127.815 165.248 128.644 163.438 128.644C162.673 128.644 161.836 128.506 161.001 128.506C160.562 128.475 160.121 128.533 159.705 128.678C159.289 128.822 158.907 129.05 158.582 129.347C158.256 129.644 157.994 130.005 157.812 130.406C157.63 130.808 157.53 131.242 157.52 131.683C157.52 133.548 159.055 134.86 161.489 134.86C164.969 134.86 168.38 132.097 171.234 125.467L186.408 90.1742C186.634 89.5066 187.04 88.9147 187.58 88.4638C188.121 88.0129 188.775 87.7206 189.471 87.6193L191 87.3436Z" fill="white"/>
</g>
<defs>
<clipPath id="clip0_2416_282">
<rect width="183" height="71" fill="white" transform="translate(8 64)"/>
</clipPath>
</defs>
</svg>
