<svg width="200" height="200" viewBox="0 0 200 200" fill="none" xmlns="http://www.w3.org/2000/svg">
<path d="M91.3069 102.898C91.0175 102.905 90.7418 102.914 90.4411 102.914H77.1262V79.5444H90.0128V79.5581C95.6107 79.5581 101.386 83.0076 101.386 91.1733C101.386 99.1476 96.8001 102.458 91.3069 102.896V102.898ZM113.63 71.3331C111.683 69.4048 109.456 67.7817 107.023 66.5189C102.89 64.1585 98.0236 62.7641 92.6716 62.5613C92.3287 62.5426 91.9853 62.5327 91.6418 62.5317H56.8418V135.707H77.1103V135.695H77.1262V119.947L92.0724 119.929C96.5741 119.946 101.023 118.958 105.093 117.035C101.169 109.567 99.8762 100.994 101.425 92.7016C102.974 84.4087 107.274 76.8804 113.63 71.3331V71.3331Z" fill="white"/>
<path d="M175.906 97.2925C175.851 96.3093 175.756 95.3288 175.621 94.3534C175.552 93.7815 175.502 93.4193 175.502 93.4193V93.4124H150.098L142.076 93.4079V93.4124H139.752V110.459H152.605C150.443 113.291 147.486 115.413 144.112 116.556C140.738 117.698 137.099 117.809 133.662 116.874C130.225 115.939 127.144 114 124.814 111.305C122.484 108.611 121.01 105.282 120.581 101.746C120.152 98.2097 120.787 94.6256 122.405 91.4518C124.022 88.278 126.549 85.6585 129.663 83.9281C132.777 82.1977 136.336 81.4349 139.886 81.7371C143.435 82.0394 146.814 83.3929 149.59 85.6249L149.668 85.6705L164.655 72.7384C150.638 58.9815 128.383 58.3663 113.631 71.3326C117.745 75.4474 120.817 81.419 121.065 90.0564C121.081 90.3913 121.088 90.7331 121.094 91.0748L121.099 91.1728V91.1842C121.099 91.3801 121.113 91.5715 121.113 91.7697C121.113 102.991 114.665 112.48 105.096 117.035C111.391 129.003 123.945 137.187 138.383 137.187C152.798 137.187 165.336 129.03 171.643 117.092C171.646 117.106 171.649 117.12 171.65 117.135C172.155 116.208 172.604 115.253 172.994 114.271C174.795 110.031 175.796 105.494 175.947 100.89C175.978 100.446 175.995 100.002 175.999 99.5572C175.999 98.835 175.958 98.0535 175.908 97.2948L175.906 97.2925Z" fill="white"/>
<path d="M121.114 91.7696C121.114 91.5714 121.103 91.3777 121.1 91.1841V91.1727L121.096 91.0747C121.091 90.7329 121.082 90.3912 121.066 90.0563C120.818 81.4189 117.747 75.445 113.632 71.3325C107.276 76.8798 102.976 84.4081 101.427 92.701C99.8777 100.994 101.17 109.567 105.095 117.035C114.666 112.478 121.112 102.991 121.112 91.7696H121.114Z" fill="white"/>
<path d="M24 62.7109L24.0843 135.706H44.2252L44.1409 62.7109H24Z" fill="white"/>
</svg>
