<svg width="200" height="200" viewBox="0 0 200 200" fill="none" xmlns="http://www.w3.org/2000/svg">
<g clip-path="url(#clip0_2416_312)">
<mask id="mask0_2416_312" style="mask-type:luminance" maskUnits="userSpaceOnUse" x="39" y="39" width="121" height="121">
<path d="M160 39H39V160H160V39Z" fill="white"/>
</mask>
<g mask="url(#mask0_2416_312)">
<path d="M116.392 129.908C112.92 128.876 111.43 128.216 111.43 126.53V126.456C111.43 125.209 112.653 124.215 114.324 124.215C116.325 124.215 118.391 125.168 120.483 126.747L123.19 122.484C120.79 120.386 117.848 119.211 114.397 119.211C109.56 119.211 106.107 122.303 106.107 126.97V127.043C106.107 130.459 109.247 133.382 113.955 134.911C117.608 136.095 118.742 136.773 118.742 138.211V138.282C118.742 139.788 117.039 140.678 115.311 140.678C112.609 140.678 110.373 139.473 108.251 137.559L105.512 141.875C108.304 144.419 111.768 145.682 115.214 145.682C120.316 145.682 123.9 141.824 123.9 137.705V137.63C123.898 133.864 121.177 131.334 116.392 129.908Z" fill="white"/>
</g>
<mask id="mask1_2416_312" style="mask-type:luminance" maskUnits="userSpaceOnUse" x="55" y="55" width="13" height="59">
<path d="M67.5404 55.8623H55.8613V113.5H67.5404V55.8623Z" fill="white"/>
</mask>
<g mask="url(#mask1_2416_312)">
<path d="M67.5404 55.8623H55.8613V113.5H67.5404V55.8623Z" fill="white"/>
</g>
<mask id="mask2_2416_312" style="mask-type:luminance" maskUnits="userSpaceOnUse" x="71" y="55" width="13" height="59">
<path d="M83.1074 55.8623H71.4316V113.5H83.1074V55.8623Z" fill="white"/>
</mask>
<g mask="url(#mask2_2416_312)">
<path d="M83.1074 55.8623H71.4316V113.5H83.1074V55.8623Z" fill="white"/>
</g>
<mask id="mask3_2416_312" style="mask-type:luminance" maskUnits="userSpaceOnUse" x="87" y="55" width="12" height="59">
<path d="M98.6839 55.8623H87V113.5H98.6839V55.8623Z" fill="white"/>
</mask>
<g mask="url(#mask3_2416_312)">
<path d="M98.6839 55.8623H87V113.5H98.6839V55.8623Z" fill="white"/>
</g>
<mask id="mask4_2416_312" style="mask-type:luminance" maskUnits="userSpaceOnUse" x="102" y="55" width="13" height="59">
<path d="M114.253 55.8623H102.57V113.5H114.253V55.8623Z" fill="white"/>
</mask>
<g mask="url(#mask4_2416_312)">
<path d="M114.253 55.8623H102.57V113.5H114.253V55.8623Z" fill="white"/>
</g>
<mask id="mask5_2416_312" style="mask-type:luminance" maskUnits="userSpaceOnUse" x="118" y="55" width="12" height="59">
<path d="M129.824 55.8623H118.145V113.5H129.824V55.8623Z" fill="white"/>
</mask>
<g mask="url(#mask5_2416_312)">
<path d="M129.824 55.8623H118.145V113.5H129.824V55.8623Z" fill="white"/>
</g>
<mask id="mask6_2416_312" style="mask-type:luminance" maskUnits="userSpaceOnUse" x="133" y="55" width="13" height="59">
<path d="M145.391 55.8623H133.715V113.5H145.391V55.8623Z" fill="white"/>
</mask>
<g mask="url(#mask6_2416_312)">
<path d="M145.391 55.8623H133.715V113.5H145.391V55.8623Z" fill="white"/>
</g>
<mask id="mask7_2416_312" style="mask-type:luminance" maskUnits="userSpaceOnUse" x="39" y="39" width="121" height="121">
<path d="M160 39H39V160H160V39Z" fill="white"/>
</mask>
<g mask="url(#mask7_2416_312)">
<path d="M133.714 140.834V134.734H143.759V130.169H133.714V124.063H145.385V119.506H128.52V145.396H145.385V140.834H133.714Z" fill="white"/>
</g>
<mask id="mask8_2416_312" style="mask-type:luminance" maskUnits="userSpaceOnUse" x="39" y="39" width="121" height="121">
<path d="M160 39H39V160H160V39Z" fill="white"/>
</mask>
<g mask="url(#mask8_2416_312)">
<path d="M71.4248 119.506V135.812L61.0901 119.506H55.8613V145.396H61.0157V128.326L71.8405 145.396H76.584V119.506H71.4248Z" fill="white"/>
</g>
<mask id="mask9_2416_312" style="mask-type:luminance" maskUnits="userSpaceOnUse" x="39" y="39" width="121" height="121">
<path d="M160 39H39V160H160V39Z" fill="white"/>
</mask>
<g mask="url(#mask9_2416_312)">
<path d="M98.1516 119.506L92.4084 128.889L86.6505 119.506H80.4316L89.8312 134.183V145.396H95.0681V134.082L104.414 119.506H98.1516Z" fill="white"/>
</g>
<mask id="mask10_2416_312" style="mask-type:luminance" maskUnits="userSpaceOnUse" x="39" y="39" width="121" height="121">
<path d="M160 39H39V160H160V39Z" fill="white"/>
</mask>
<g mask="url(#mask10_2416_312)">
<path d="M149.411 119.833H148.825V121.674H148.445V119.833H147.859V119.501H149.412L149.411 119.833ZM151.597 120.286L151.571 120.278L150.964 121.672H150.757L150.126 120.221L150.1 120.229V121.674H149.726V119.501H150.196L150.847 121.08H150.87L151.527 119.501H151.97V121.674H151.595L151.597 120.286Z" fill="white"/>
</g>
</g>
<defs>
<clipPath id="clip0_2416_312">
<rect width="121" height="121" fill="white" transform="translate(39 39)"/>
</clipPath>
</defs>
</svg>
