<svg width="200" height="200" viewBox="0 0 200 200" fill="none" xmlns="http://www.w3.org/2000/svg">
<path d="M145.101 113.323C138.852 113.323 134.97 109.704 134.97 103.87C134.97 97.8159 138.553 94.0491 144.321 94.0491H144.805C145.529 94.0491 146.525 94.0727 147.886 94.2427V86.9346H151.961V112.665C151.961 112.665 148.089 113.323 145.101 113.323ZM145.064 97.2576C141.117 97.2576 139.197 99.3883 139.197 103.769C139.197 107.702 141.513 110.147 145.234 110.147C145.949 110.147 146.768 110.1 147.885 110.004V97.5196C146.77 97.3402 145.87 97.2576 145.064 97.2576ZM89.2832 112.733L78.2755 93.5238L78.272 112.733H74.4355V88.4148H79.8066L90.8142 107.453L90.8095 88.4148H94.6967V112.733H89.2832ZM124.346 113.107C122.493 113.107 120.56 112.9 118.26 112.457L118.01 112.41V109.012L118.374 109.09C120.403 109.524 122.155 109.893 123.908 109.893C125.323 109.893 128.62 109.671 128.62 107.588C128.62 105.841 126.342 105.401 124.512 105.051L124.397 105.027C124.054 104.964 123.732 104.899 123.461 104.83C120.776 104.134 117.913 103.087 117.913 99.4898C117.913 95.9815 120.689 93.9712 125.531 93.9712C127.855 93.9712 129.542 94.2191 130.899 94.4221L131.557 94.5189V97.8159L131.207 97.7522C129.672 97.47 127.873 97.1797 126.144 97.1797C124.221 97.1797 121.939 97.5397 121.939 99.2502C121.939 100.67 123.806 101.076 125.969 101.547C128.993 102.201 132.742 103.023 132.742 107.15C132.742 110.935 129.685 113.107 124.346 113.107ZM163.401 113.107C159.183 113.107 155.277 112.364 155.277 106.979C155.277 101.118 161.317 101.118 164.928 101.118C165.287 101.118 166.985 101.197 167.505 101.219C167.501 97.9316 167.459 97.1478 162.692 97.1478C160.802 97.1478 158.703 97.5208 156.849 97.8537L156.495 97.9174V94.6712L156.734 94.6204C158.882 94.1837 160.954 93.9712 163.066 93.9712C167.686 93.9712 171.6 94.4363 171.6 100.169V112.669L171.319 112.701C168.119 113.06 165.578 113.107 163.401 113.107ZM164.827 104.018C161.345 104.018 159.187 104.53 159.187 107.08C159.187 110.031 161.94 110.276 164.522 110.276C165.486 110.276 167.22 110.152 167.75 110.114V104.119C167.004 104.088 165.062 104.018 164.827 104.018ZM106.224 113.107C102 113.107 98.0952 112.364 98.0952 106.979C98.0952 101.118 104.136 101.118 107.745 101.118C108.105 101.118 109.806 101.197 110.328 101.219C110.323 97.9316 110.277 97.1478 105.51 97.1478C103.619 97.1478 101.52 97.5208 99.6664 97.8537L99.3122 97.9174V94.6712L99.5566 94.6204C101.638 94.19 103.758 93.9725 105.884 93.9712C110.503 93.9712 114.418 94.4363 114.418 100.169V112.669L114.136 112.701C110.937 113.06 108.396 113.107 106.224 113.107ZM107.644 104.018C104.163 104.018 102.01 104.53 102.01 107.08C102.01 110.031 104.758 110.276 107.34 110.276C108.308 110.276 110.042 110.152 110.573 110.114V104.119C109.821 104.088 107.879 104.018 107.644 104.018Z" fill="white"/>
<mask id="mask0_2416_327" style="mask-type:luminance" maskUnits="userSpaceOnUse" x="174" y="92" width="18" height="30">
<path d="M174.258 92.8691H191.996V121.2H174.258V92.8691Z" fill="white"/>
</mask>
<g mask="url(#mask0_2416_327)">
<path d="M187.825 120.997V113.019C186.235 113.241 185.391 113.241 184.709 113.241C183.094 113.241 181.301 112.891 179.913 112.305C176.804 111.012 174.951 107.731 174.951 103.52C174.951 101.419 175.463 97.5767 178.889 95.5062C180.609 94.4792 182.638 94.04 185.691 94.04C186.783 94.04 188.258 94.1227 189.683 94.2053L191.998 94.3257V119.148L187.825 120.997ZM185.386 97.2497C181.245 97.2485 179.146 99.3615 179.146 103.52C179.146 108.875 182.277 110 184.909 110C185.55 110 186.27 110 187.865 109.797V97.3654C186.616 97.2827 186.04 97.2497 185.386 97.2497Z" fill="white"/>
</g>
<mask id="mask1_2416_327" style="mask-type:luminance" maskUnits="userSpaceOnUse" x="39" y="74" width="33" height="39">
<path d="M39.6934 74H71.5654V112.936H39.6934V74Z" fill="white"/>
</mask>
<g mask="url(#mask1_2416_327)">
<path d="M56.2335 74L42.7552 111.031C42.5885 111.487 42.2969 111.886 41.9136 112.184C41.5303 112.482 41.0709 112.666 40.5879 112.715V112.733H54.8359C55.9514 112.733 56.9064 112.023 57.2617 111.032L70.7447 74H56.2335Z" fill="white"/>
</g>
<path d="M39.4249 112.171C40.2512 112.171 40.9748 111.76 41.4174 111.138C41.4635 111.073 41.6252 110.847 41.7397 110.538L46.6834 96.9492L43.7913 89.013C43.6229 88.6112 43.35 88.2617 43.001 88.0007C42.652 87.7398 42.2396 87.5769 41.8065 87.529C41.3734 87.4811 40.9354 87.5498 40.5378 87.7282C40.1402 87.9065 39.7975 88.1879 39.5453 88.5432C39.498 88.6082 39.3056 88.8974 39.223 89.1429L34.2793 102.727L37.1844 110.695C37.3728 111.133 37.6854 111.507 38.0836 111.769C38.4818 112.031 38.9481 112.171 39.4249 112.171Z" fill="white"/>
<mask id="mask2_2416_327" style="mask-type:luminance" maskUnits="userSpaceOnUse" x="9" y="85" width="32" height="41">
<path d="M9 85.7856H40.872V125.681H9V85.7856Z" fill="white"/>
</mask>
<g mask="url(#mask2_2416_327)">
<path d="M40.4798 86.9473H26.0749C24.9594 86.9473 24.0044 87.6532 23.6443 88.6495L10.166 125.68H24.6772L38.1567 88.6506C38.3316 88.1689 38.6459 87.7501 39.0596 87.4476C39.4733 87.1451 39.9677 86.9726 40.4798 86.952V86.9473Z" fill="white"/>
</g>
</svg>
