<svg width="200" height="200" viewBox="0 0 200 200" fill="none" xmlns="http://www.w3.org/2000/svg">
<path d="M70.321 118.222C63.5539 118.807 60.2509 112.502 59.7353 106.432C59.0307 98.1299 63.3899 94.8485 67.5985 94.4844C74.0302 93.931 77.5578 100.029 78.0911 106.327C78.7706 114.398 74.7526 117.833 70.321 118.222ZM54.5518 106.589C54.5518 114.037 59.9406 120 69.021 120C77.2786 120 83.2657 114.211 83.2657 106.239C83.2657 99.0154 78.4559 92.7061 69.021 92.7061C60.5212 92.7061 54.5518 98.7358 54.5518 106.589ZM181.26 85.82C181.26 82.7498 179.163 80.1529 176.743 80.1529C174.468 80.1529 173.935 81.6851 173.935 82.5852C173.935 83.6892 174.709 84.1727 175.511 84.2354C176.634 84.3024 178.442 85.2971 178.442 87.5473C178.442 89.9607 176.167 91.6196 173.993 92.6202C173.706 93.0309 173.934 93.6338 174.403 93.8611C178.089 92.7469 181.26 89.8966 181.26 85.82ZM191.239 104.99L187.611 103.098C185.267 101.858 183.705 100.553 183.705 98.4489C183.705 96.4361 184.983 94.4116 188.438 94.4116C191.896 94.4116 193.415 97.4323 193.904 99.4975C194.179 99.9053 195.233 99.8471 195.431 99.3839C195.465 96.8439 195.059 94.5922 194.589 93.5872C192.604 93.2435 191.192 92.7061 189.134 92.7061C183.235 92.7061 179.924 95.7137 179.924 100.029C179.924 103.341 182.342 105.644 185.157 107.113L187.787 108.481C191.137 110.194 191.896 112.145 191.896 114.037C191.896 116.751 189.966 118.296 186.977 118.296C183.048 118.296 180.476 114.101 179.999 111.968C179.584 111.429 178.709 111.488 178.477 112.096C178.477 115.22 179.175 117.348 179.708 118.169C180.528 118.753 182.881 120 186.442 120C192.248 120 196 117.107 196 112.502C196 108.541 193.356 106.054 191.239 104.99ZM130.111 117.756C125.633 117.756 125.06 115.862 125.06 112.096V98.0221C125.06 96.7113 125.06 95.9598 125.399 95.7137C125.877 95.3131 126.992 95.0728 128.932 95.0728C135.545 95.0728 140.583 98.8552 140.583 106.12C140.583 113.319 137.133 117.756 130.111 117.756ZM137.717 94.6606C134.965 93.7081 132.087 93.3615 128.806 93.3615C124.07 93.3615 120.779 93.478 117.494 93.7081C116.973 93.8829 116.906 95.0102 117.43 95.1893L119.187 95.4224C120.543 95.5971 120.596 96.6021 120.596 100.443V112.981C120.596 117.048 120.363 117.281 117.844 117.694L116.726 117.869C116.323 118.169 116.383 119.18 116.84 119.348C118.836 119.242 120.835 119.186 122.834 119.18C123.716 119.18 124.828 119.237 125.983 119.294C127.224 119.42 128.583 119.474 129.87 119.474C132.795 119.474 136.074 119.015 138.715 117.635C143.413 115.22 145.806 110.906 145.806 106.239C145.806 100.8 143.048 96.487 137.717 94.6606ZM170.982 93.3615C169.322 93.478 168.091 93.529 166.794 93.529C165.457 93.529 164.115 93.4766 162.361 93.3615C161.767 93.5887 161.711 94.5368 162.233 94.8281L163.466 95.0102C164.887 95.1893 164.757 95.7137 163.88 97.3696L161.535 101.692C160.546 103.571 159.659 104.99 158.72 106.589C157.794 104.983 156.918 103.35 156.092 101.692L153.914 97.492C152.966 95.6481 153.161 95.3131 154.44 95.0102L155.268 94.8281C155.847 94.5368 155.678 93.5887 155.201 93.3615C151.747 93.5841 148.281 93.5841 144.827 93.3615C144.367 93.529 144.251 94.4771 144.649 94.8281L146.178 95.1194C147.694 95.4224 148.294 95.9598 149.517 98.3149L153.792 106.293C155.268 109.01 155.432 109.482 155.432 111.324V113.552C155.432 117.048 155.201 117.406 152.682 117.694L151.223 117.869C150.803 118.169 150.858 119.18 151.338 119.348C153.975 119.237 155.799 119.18 157.675 119.18C159.478 119.18 161.42 119.237 163.99 119.348C164.468 119.18 164.527 118.169 164.115 117.871L162.648 117.696C160.131 117.406 159.885 117.048 159.885 113.552V110.364C159.885 108.659 160.011 108.07 162.123 104.703L165.754 98.7839C167.571 95.8389 167.862 95.4806 169.688 95.1194L171.088 94.8281C171.567 94.5368 171.439 93.529 170.982 93.3615ZM101.8 118.222C95.0346 118.807 91.7286 112.502 91.2145 106.432C90.5099 98.1299 94.8706 94.8485 99.0777 94.4844C105.511 93.931 109.034 100.029 109.566 106.327C110.251 114.398 106.235 117.833 101.8 118.222ZM100.5 92.7046C92.0063 92.7046 86.031 98.7358 86.031 106.589C86.031 114.037 91.4169 120 100.5 120C108.758 120 114.745 114.211 114.745 106.239C114.745 99.0154 109.941 92.7046 100.5 92.7046ZM51.8736 117.694C49.1231 117.406 49.1777 115.861 49.0019 112.92C48.5278 104.401 48.4702 93.4766 48.352 87.2094C48.2958 83.0789 48.7656 82.0157 52.4512 81.5875L53.6921 81.4754C53.9905 81.2365 53.9905 80.2359 53.6404 80C51.8086 80.1165 49.8838 80.1675 48.417 80.1675C47.2426 80.1675 46.018 80.1675 44.0164 80C43.8982 82.7192 42.2629 85.9729 39.5656 91.3399L34.0526 102.623C32.5917 105.644 31.1219 108.726 29.5398 111.488H29.426C28.0079 108.887 26.7257 106.172 25.3785 103.404L18.6956 89.7495C16.8861 85.9715 15.4103 82.3012 15.6482 80C13.7115 80.1675 12.1324 80.1675 10.7808 80.1675C9.31834 80.1675 7.91352 80.118 6.15269 80C5.67851 80.2359 5.6209 81.1215 5.91929 81.4754L6.84993 81.589C10.4262 82.1861 10.9093 82.9479 10.7793 86.6749C10.6121 91.0673 10.3964 95.4578 10.1323 99.8456C9.78957 105.703 9.50004 108.948 9.14255 112.858C8.78803 116.985 7.9667 117.406 5.50863 117.694L4.21903 117.869C3.85416 118.169 3.97973 119.065 4.34164 119.348C6.32901 119.238 8.31906 119.182 10.3095 119.18C12.5372 119.18 14.8298 119.237 16.8211 119.348C17.2317 119.18 17.2938 118.229 16.8861 117.871L14.6555 117.696C12.3614 117.524 12.0187 116.577 12.0187 112.202C12.0187 107.185 12.2506 101.911 12.4264 98.3149C12.611 94.8864 12.7839 91.455 13.0069 87.7935H13.1281C14.4162 90.5141 15.6482 93.5887 16.8861 96.3021L22.1479 107.713C23.498 110.606 26.3091 116.405 27.3195 119.527C27.4303 119.71 27.7287 119.767 27.841 119.767C28.0818 119.767 28.3108 119.71 28.4186 119.527C29.4822 116.81 32.1264 111.266 34.7528 106.054L39.9703 95.7137C41.1447 93.4168 43.3635 88.6863 43.7815 88.0382H43.8982L44.0755 112.676C44.0755 116.459 44.0755 117.406 41.2067 117.694L39.5183 117.869C39.1579 118.229 39.2155 119.065 39.6306 119.348C42.0236 119.237 44.6649 119.18 46.7093 119.18C48.8247 119.18 51.2325 119.237 53.6404 119.348C54.0436 119.114 54.0998 118.229 53.7571 117.871L51.8736 117.694Z" fill="white"/>
</svg>
