<svg width="200" height="200" viewBox="0 0 200 200" fill="none" xmlns="http://www.w3.org/2000/svg">
<g clip-path="url(#clip0_2418_465)">
<path d="M114.299 105.949C114.299 119.025 107.153 120.593 100.008 120.593C87.72 120.593 85.1054 114.316 85.1054 105.339V80.0167H80.5742V77.5757H97.7416V80.0161H92.8617V104.597C92.8617 113.271 95.1276 117.586 101.358 117.586C107.719 117.586 110.814 114.448 110.814 105.425V80.0155H106.238V77.5757H118.438V80.0161H114.298L114.299 105.949ZM126.313 117.672V80.0167H121.533V77.5757H140.574C148.678 77.5757 152.686 82.1513 152.686 87.5121C152.686 93.2214 147.502 96.4458 142.883 97.4059C151.858 98.2332 154.298 103.987 154.298 108.216C154.298 116.844 146.935 120.114 139.702 120.114H121.227V117.672H126.313ZM144.931 87.9921C144.931 84.0263 142.883 80.0161 138.395 80.0161H133.446V96.3593H137.873C142.621 96.3593 144.931 92.3485 144.931 87.9921ZM146.456 108.216C146.456 102.549 144.016 98.7559 138.308 98.7559H133.446V117.672H137.393C143.449 117.672 146.456 114.099 146.456 108.216ZM173.296 79.4502C168.808 79.4502 165.932 82.1081 165.932 86.7275C165.932 90.9108 170.464 92.9168 174.865 94.3983C177.478 95.3151 180.791 96.5335 183.056 98.7132C185.54 101.067 186.89 104.205 186.804 108.17C186.629 115.581 181.444 120.592 172.294 120.636C168.852 120.636 163.492 119.852 160.268 117.978L159.919 106.82H162.621C162.839 114.316 166.368 118.239 172.555 118.239C177.522 118.239 180.268 114.926 180.268 109.871C180.268 105.513 176.651 103.638 171.161 101.808C169.374 101.197 165.845 99.8901 163.361 97.4503C161.139 95.2256 160.094 92.438 160.094 89.4737C160.094 80.8002 166.281 77.0513 173.95 77.0513C176.999 77.0513 181.575 78.1423 184.232 79.6665L184.494 89.3427H181.793C181.227 82.4571 178.22 79.4502 173.296 79.4502Z" fill="white"/>
<path d="M59.1296 86.1838L57.994 87.131L59.1928 91.0436L55.5962 89.0867L54.3974 90.0338L58.3725 92.1802L54.1454 95.587L53.0098 94.0727L54.5239 92.8742L53.3872 91.5481L51.8742 92.7479L50.7386 91.2967L52.2528 90.0964L51.1172 88.6453L43.3567 95.0824L50.7386 101.015L52.0629 99.3739C53.0098 99.437 53.7036 100.131 54.0821 101.015L52.7578 102.656L53.577 103.286C55.4064 101.646 57.8047 100.574 60.2651 100.574C65.438 100.574 69.4752 104.801 69.4752 109.976C69.4752 111.68 69.034 113.511 68.0877 115.025L69.4752 116.097C69.4125 117.107 68.4662 118.179 67.5199 118.432L66.1944 117.359C64.3663 119.126 61.9679 120.073 59.4442 120.073C54.2708 120.073 50.2335 115.972 50.2335 110.735C50.2335 109.03 50.7386 107.263 51.4957 105.812L50.7386 105.116L49.4138 106.883C48.4669 106.758 47.6471 106.124 47.3952 105.116L48.7194 103.538L42.4731 98.3642V106.567L44.5556 106.631C44.8082 106.946 44.998 107.389 44.998 107.894C44.998 108.334 44.8082 108.841 44.6189 109.219H42.4737V110.229C47.016 110.986 50.8019 114.835 50.8019 119.504C50.8019 124.364 47.0787 128.215 42.4737 128.97V130.613C42.0319 130.863 41.4641 131.054 40.9596 131.054C40.3918 131.054 39.7607 130.863 39.2562 130.613V128.97C34.6512 128.215 31.0546 124.364 31.0546 119.504C31.0546 114.835 34.6512 110.985 39.2562 110.292V109.218H37.1116C36.8585 108.84 36.7325 108.334 36.7325 107.893C36.7325 107.389 36.8585 106.946 37.1116 106.566H39.2562V98.3636L32.9472 103.538L34.3359 105.115C34.0195 106.124 33.1997 106.758 32.2534 106.883L30.9286 105.115L30.1082 105.811C30.9919 107.262 31.4331 109.03 31.4331 110.734C31.4331 115.971 27.3958 120.072 22.223 120.072C19.762 120.072 17.301 119.125 15.5349 117.358L14.1467 118.432C13.2637 118.179 12.3174 117.107 12.1914 116.097L13.5157 115.024C12.6965 113.51 12.1914 111.679 12.1914 109.975C12.1914 104.801 16.2287 100.574 21.4027 100.574C23.9252 100.574 26.3229 101.645 28.1529 103.286L28.91 102.717L27.5851 101.014C27.9003 100.13 28.7207 99.5002 29.6664 99.3733L30.9919 101.014L38.3732 95.083L30.6133 88.6458L29.4777 90.0964L30.9919 91.2967L29.8563 92.7479L28.3422 91.5481L27.206 92.8742L28.6574 94.0727L27.5218 95.587L23.358 92.1802L27.2699 90.0333L26.1343 89.0861L22.5382 91.0436L23.7365 87.131L22.6009 86.1838L21.2767 90.4758L17.049 87.0672L18.1846 85.6792L19.636 86.8796L20.8349 85.491L19.3202 84.165L20.4558 82.8389L21.9699 83.9767L23.0422 82.6507L19.762 80.0641C20.0772 78.9889 20.7716 78.1066 21.7812 77.474L39.2562 91.7387V82.2081H37.4901V84.0381H35.7235V82.2081H33.8935V84.0381H32.0642V78.6749L36.2274 80.4406V78.9263L32.38 77.3501L36.2274 75.8358V74.3835L32.0642 76.0246V70.5972H33.8935V72.5535H35.7235V70.5972H37.4901V72.5535H39.2562V68.2626C39.7607 68.0726 40.3285 67.9463 40.8969 67.9463C41.4008 67.9463 41.9692 68.0726 42.4731 68.262V91.7387L59.9493 77.4746C60.8883 78.0938 61.5975 79.0036 61.9679 80.0641L58.6245 82.6507L59.76 83.9767L61.2747 82.8389L62.4097 84.165L60.8956 85.491L62.0312 86.8796L63.5459 85.6792L64.6809 87.0672L60.4538 90.4758L59.1296 86.1838ZM23.4207 111.994C23.4207 113.51 24.5575 114.455 25.8817 114.582L23.6738 116.286C22.1597 115.717 20.7716 113.888 20.7716 112.31C20.7716 111.806 20.8976 111.489 21.0235 111.112C20.8349 111.112 20.7083 111.175 20.5817 111.175C18.5637 111.175 16.8597 109.281 16.4818 107.325L18.7524 105.558C18.6891 105.811 18.6891 105.999 18.6891 106.189C18.6891 107.45 19.888 108.587 21.1501 108.587C22.4744 108.587 23.7365 107.45 23.7365 106.124C23.7365 104.486 22.4744 103.413 20.8976 103.413C17.8066 103.413 14.7778 106.378 14.7778 110.291C14.7778 111.426 15.0298 112.5 15.5349 113.445L16.9236 112.373C17.8693 112.814 18.6264 113.761 18.8789 114.835L17.4914 115.907C18.8157 117.043 20.4558 117.548 22.1597 117.548C25.6919 117.548 28.5314 114.709 28.5314 112.184C28.5314 110.734 27.5218 109.471 26.0077 109.471C24.6196 109.471 23.4207 110.543 23.4207 111.994ZM42.1585 117.423C42.1585 118.809 43.294 119.946 44.6189 119.946C45.5652 119.946 45.9432 119.568 46.6375 118.999V121.84C45.9432 122.218 45.2494 122.407 44.4929 122.407C42.9788 122.407 41.7172 121.965 40.8963 120.64C40.0133 121.965 38.7517 122.407 37.237 122.407C36.5432 122.407 35.7862 122.218 35.0924 121.84V118.999C35.7235 119.63 36.2274 119.946 37.1116 119.946C38.4997 119.946 39.572 118.809 39.572 117.423C39.572 116.097 38.6884 114.898 37.237 114.898C34.6512 114.898 33.5783 117.358 33.5783 119.63C33.5783 122.975 36.0393 125.814 39.2562 126.383V124.679C39.7607 124.426 40.3285 124.363 40.8336 124.363C41.4014 124.363 41.9686 124.426 42.4737 124.679V126.383C45.4386 125.941 48.1516 122.785 48.1516 119.63C48.1516 117.295 47.2053 114.898 44.4923 114.898C43.1048 114.898 42.1585 116.097 42.1585 117.423ZM57.868 106.124C57.868 107.389 59.1922 108.587 60.5171 108.587C61.7787 108.587 62.9781 107.45 62.9781 106.189C62.9781 105.999 62.9143 105.811 62.9143 105.558L65.1233 107.325C64.7436 109.471 62.8516 111.363 60.6437 111.112C60.7696 111.489 60.8323 111.806 60.8323 112.31C60.8323 113.888 59.4448 115.717 57.9307 116.286L55.7222 114.582C57.1109 114.455 58.2459 113.51 58.2459 111.994C58.2459 110.543 56.9844 109.471 55.5962 109.471C54.1454 109.471 53.0731 110.733 53.0731 112.247C53.0731 114.077 55.2804 117.548 59.5081 117.548C61.2115 117.548 62.8516 117.043 64.1137 115.907L62.725 114.835C63.0402 113.761 63.6713 112.814 64.6809 112.373L66.069 113.445C66.5736 112.5 66.8894 111.426 66.8894 110.291C66.8894 107.262 64.5549 103.413 60.8323 103.413C59.2555 103.413 57.8674 104.486 57.8674 106.124H57.868Z" fill="white"/>
</g>
<defs>
<clipPath id="clip0_2418_465">
<rect width="200" height="200" fill="white"/>
</clipPath>
</defs>
</svg>
