<svg width="200" height="200" viewBox="0 0 200 200" fill="none" xmlns="http://www.w3.org/2000/svg">
<path d="M154.154 50.8364V89.6142L153.661 90.0228L153.167 90.4315L152.694 90.8605L152.241 91.2896L151.81 91.7186L151.378 92.1681L150.966 92.6176L150.555 93.0671V50.8364H107.301V86.141H103.723V50.8364H60.469V86.2023H56.8902V50.8364H13.6366V91.1465L2.5918 127.697H12.2997L17.1742 111.516H18.5728L26.6353 127.697H38.3588L30.5431 111.516H48.2724L43.3567 127.697H53.949L58.803 111.557H61.1477V111.516H64.4796H64.747H84.7593L80.0699 127.656H90.765L95.3104 111.516H100.123L100.247 127.656H109.214L119.518 111.516H126.265L122.768 127.656H133.299L136.733 111.516H142.821L142.78 112.435L142.802 113.375L142.843 114.274L142.925 115.173L142.987 115.602L143.049 116.031L143.131 116.46L143.213 116.889L143.316 117.318L143.419 117.727L143.542 118.136L143.665 118.544L143.809 118.953L143.953 119.341L144.118 119.729L144.283 120.097L144.468 120.485L144.653 120.853L144.859 121.2L145.064 121.568L145.291 121.915L145.538 122.242L145.784 122.59L146.052 122.896L146.319 123.223L146.587 123.529L146.895 123.836L147.204 124.122L147.594 124.449L147.985 124.776L148.396 125.082L148.828 125.368L149.26 125.654L149.692 125.92L150.145 126.144L150.618 126.39L151.07 126.594L151.543 126.798L152.016 126.982L152.51 127.166L153.004 127.33L153.497 127.473L153.991 127.616L154.484 127.738L155.472 127.963L156.48 128.126L157.467 128.269L158.454 128.392L159.421 128.474L160.367 128.515L161.292 128.556H162.177L163.37 128.536L164.563 128.517L165.776 128.455L166.99 128.394L168.203 128.292L169.417 128.19L170.63 128.067L171.843 127.924L173.078 127.76L174.312 127.577L175.546 127.372L176.78 127.168L178.014 126.943L179.248 126.698L180.482 126.453L181.736 126.167L185.398 111.518H197.409V50.8383L154.154 50.8364ZM17.6473 110.004L17.7089 109.78L17.853 110.004H17.6473ZM55.3271 88.2658L54.7101 90.3293L48.9511 109.33L48.7248 110.004H29.8027L28.3424 106.899L48.7248 86.2023H35.6233L19.6834 103.262L24.8459 86.2023H15.1791V52.3688H55.327L55.3271 88.2658ZM66.4953 104.324L66.1867 104.344L65.8988 104.363L65.5903 104.383H65.2612H64.8293H64.4591L64.1094 104.402H63.7803L61.2094 104.383L62.4023 100.01L62.9576 97.8447L64.3151 92.7575H64.747H65.1995L65.6314 92.7381H66.0428H68.0378L69.2513 92.7575L70.362 92.7984L70.8556 92.8178L71.3286 92.8588L71.7811 92.9201L72.1925 92.9814L72.5627 93.0427L72.9123 93.1449L73.2414 93.2472L73.5294 93.3698L73.7762 93.4924L74.0025 93.656L74.2082 93.8196L74.3726 94.0239L74.4754 94.1874L74.5576 94.351L74.6398 94.5349L74.7015 94.7392L74.7426 94.9638L74.7643 95.1885V95.4336V95.6992L74.7426 95.9853L74.7232 96.2713L74.6616 96.5982L74.5999 96.9251L74.4147 97.6197L74.1884 98.3961L73.9621 99.0499L73.7153 99.6833L73.4479 100.276L73.16 100.827L73.0159 101.073L72.8718 101.318L72.7071 101.563L72.5219 101.788L72.3367 102.012L72.1515 102.216L71.9458 102.421L71.74 102.605L71.5137 102.768L71.2874 102.952L71.0406 103.095L70.7732 103.259L70.5058 103.402L70.2179 103.524L69.9299 103.647L69.6214 103.749L69.2923 103.872L68.9427 103.953L68.5725 104.035L68.2023 104.117L67.7909 104.178L67.3796 104.239L66.9476 104.28L66.4952 104.321L66.4953 104.324ZM95.7424 110.004L99.9587 95.0897L100.123 110.004H95.7424ZM102.159 86.141H92.1225L85.2118 110.004H74.5578L75.0514 109.8L75.545 109.596L76.0181 109.391L76.4911 109.167L76.9436 108.942L77.3755 108.677L77.8074 108.431L78.2188 108.166L78.6301 107.88L79.0209 107.594L79.3911 107.308L79.7614 106.981L80.111 106.674L80.4401 106.327L80.7692 106L81.0777 105.632L81.3862 105.285L81.6742 104.897L81.9415 104.529L82.2089 104.12L82.4557 103.712L82.682 103.303L82.9083 102.874L83.1141 102.425L83.3198 101.975L83.505 101.526L83.6694 101.056L83.8341 100.565L83.9574 100.075L84.1015 99.5848L84.2043 99.0536L84.307 98.5428L84.4511 97.7256L84.5744 96.9492L84.6566 96.2137L84.7183 95.519L84.74 94.8244L84.7183 94.191L84.6989 93.5577L84.6167 92.9652L84.5345 92.4136L84.3904 91.8619L84.2463 91.3511L84.0406 90.8608L83.8143 90.3909L83.5675 89.921L83.2795 89.4919L82.9504 89.0833L82.683 88.7973L82.4157 88.5113L82.1277 88.2661L81.8192 88.0414L81.4901 87.8168L81.161 87.6125L80.8114 87.4286L80.4617 87.265L80.0915 87.1015L79.7213 86.9788L79.3305 86.8562L78.9397 86.7336L78.5284 86.6313L78.117 86.5497L77.7057 86.468L77.2738 86.4067L76.3894 86.2841L75.5049 86.2228L74.6 86.1615L73.6744 86.1421H71.8234H69.9929H69.417H68.3886H67.1134H65.6942H64.3162H63.1438H62.3211H62.0126V52.3698H102.161L102.159 86.141ZM126.553 110.004H120.526L129.658 95.7026L126.553 110.004ZM148.992 86.8152L148.97 95.0897L148.456 95.8048L147.983 96.5403L147.51 97.2758L147.078 98.0113L146.666 98.7468L146.255 99.5028L145.905 100.238L145.556 100.974L145.227 101.689L144.939 102.424L144.651 103.139L144.404 103.834L144.178 104.529L143.972 105.203L143.787 105.857L143.622 106.511L143.519 106.94L143.417 107.389L143.314 107.818L143.232 108.268L143.149 108.697L143.088 109.126L143.026 109.555L142.985 110.004H137.082L142.121 86.2023L125.132 86.1829L109.933 110.005H108.822V52.3698H148.991L148.992 86.8152ZM172.151 119.75L171.308 119.893L170.444 120.015L169.58 120.138L168.737 120.24L167.893 120.322L167.05 120.383L166.227 120.424H165.405H164.87L164.335 120.405L163.821 120.364L163.307 120.303L162.813 120.221L162.34 120.139L161.867 120.037L161.415 119.914L160.983 119.771L160.551 119.628L160.139 119.444L159.749 119.261L159.358 119.036L158.988 118.811L158.638 118.566L158.309 118.321L157.98 118.035L157.692 117.728L157.404 117.422L157.137 117.075L156.89 116.727L156.663 116.339L156.458 115.951L156.252 115.542L156.087 115.113L155.943 114.643L155.82 114.173L155.697 113.683L155.614 113.172L155.553 112.641L155.512 112.089L155.49 111.517H174.206L172.151 119.75ZM195.886 110.004H185.767L187.433 103.344H167.153L165.487 110.004H155.676V108.635L155.8 108.063L155.902 107.491L156.026 106.878L156.149 106.265L156.334 105.591L156.519 104.917L156.725 104.243L156.951 103.589L157.198 102.935L157.466 102.281L157.754 101.648L158.042 101.015L158.371 100.381L158.7 99.7888L159.049 99.1759L159.44 98.6038L159.831 98.0318L160.222 97.4801L160.654 96.9489L161.106 96.4381L161.579 95.9478L162.052 95.4983L162.566 95.0489L163.081 94.6198L163.615 94.2316L164.191 93.8638L164.767 93.537L165.364 93.2305L165.981 92.9445L166.618 92.6993L167.276 92.495L167.955 92.3314L168.654 92.1885L169.374 92.0862L170.115 92.0249L170.876 92.0055L171.472 92.0249L172.069 92.0659L172.665 92.1475L173.241 92.2701L173.529 92.3518L173.796 92.4335L174.064 92.5151L174.31 92.6377L174.557 92.74L174.804 92.883L175.03 93.026L175.257 93.1689L175.462 93.3529L175.668 93.5368L175.853 93.7207L176.039 93.9453L176.203 94.1496L176.347 94.3948L176.471 94.6604L176.594 94.926L176.697 95.212L176.779 95.5185L176.841 95.825L176.902 96.1723L176.924 96.5196V96.8874V97.2755L176.883 97.6842H188.977L189.162 96.8465L189.327 95.8862L189.409 95.3755L189.45 94.8238L189.491 94.2722V93.7001L189.472 93.1076L189.41 92.4947L189.348 92.2087L189.307 91.9022L189.225 91.5958L189.143 91.2893L189.04 90.9624L188.937 90.656L188.814 90.3495L188.67 90.043L188.526 89.7365L188.341 89.4301L188.155 89.1236L187.95 88.8171L187.703 88.4903L187.435 88.1838L187.168 87.8773L186.88 87.5913L186.572 87.3053L186.242 87.0397L185.913 86.7945L185.564 86.5493L185.193 86.3042L184.823 86.0999L184.433 85.8956L184.021 85.6913L183.61 85.5074L183.178 85.3235L182.725 85.1599L182.273 84.9963L181.82 84.8534L181.327 84.7307L180.854 84.6081L180.34 84.4855L179.825 84.3832L179.311 84.281L178.776 84.1993L178.221 84.138L177.09 84.0154L175.938 83.9131L174.725 83.8722L173.491 83.8528L172.565 83.8722L171.598 83.8916L170.591 83.9529L169.542 84.0345L168.451 84.1572L167.341 84.3001L166.21 84.4841L165.058 84.7292L164.482 84.8518L163.885 84.9948L163.31 85.1584L162.713 85.3219L162.117 85.5059L161.52 85.7102L160.924 85.9144L160.348 86.1391L159.751 86.3842L159.155 86.6498L158.579 86.9154L157.983 87.2015L157.407 87.5079L156.831 87.8348L156.255 88.1617L155.679 88.5295V52.3668H195.889V110.002L195.886 110.004Z" fill="white"/>
</svg>
