<svg width="200" height="200" viewBox="0 0 200 200" fill="none" xmlns="http://www.w3.org/2000/svg">
<path d="M6 116.718H19.3082V114.901H8.08817V96.7039H6V116.718ZM38.3198 116.875C44.3038 116.875 48.7918 112.521 48.7918 106.664C48.7918 100.807 44.3038 96.4533 38.3198 96.4533C32.3358 96.4533 27.8478 100.776 27.8478 106.633C27.692 112.49 32.18 116.875 38.3198 116.875ZM38.3198 115.058C33.5202 115.058 29.936 111.613 29.936 106.789C29.936 101.966 33.5202 98.5205 38.3198 98.5205C43.1195 98.5205 46.7037 101.966 46.7037 106.789C46.5478 111.456 43.0883 115.058 38.3198 115.058ZM74.6602 113.398C73.1642 114.463 71.3565 114.901 69.4242 114.901C64.4998 114.901 60.8845 111.3 60.8845 106.633C60.8845 101.809 64.4687 98.3639 69.4242 98.3639C71.824 98.3639 73.7563 99.1156 75.4082 100.776L76.7483 99.4288C74.9407 97.4869 72.4162 96.5786 69.2683 96.5786C63.1285 96.5786 58.6405 100.932 58.6405 106.789C58.6405 112.646 63.1285 117 69.1125 117C71.7928 117 74.5043 116.092 76.4367 114.432V106.758H74.3485L74.6602 113.398ZM89.776 96.7039H91.8642V116.687H89.776V96.7039ZM114.148 116.875C117.14 116.875 119.696 115.81 121.473 113.868L120.132 112.521C118.481 114.181 116.548 114.933 114.304 114.933C109.505 114.933 105.92 111.331 105.92 106.664C105.92 101.841 109.505 98.3952 114.304 98.3952C116.548 98.3952 118.636 99.1469 120.132 100.807L121.473 99.4601C119.665 97.5182 117.14 96.6099 114.148 96.6099C108.164 96.6099 103.676 100.964 103.676 106.821C103.676 112.678 108.164 116.875 114.148 116.875ZM117.016 76.5644L114.772 81.6697L115.364 82.1082C117.296 83.6116 120.756 84.6765 124.028 84.6765C127.02 84.6765 129.42 83.9248 130.916 82.578C132.568 81.2312 133.316 79.4146 133.316 77.6293C133.316 76.4391 133.004 75.3741 132.568 74.4658C132.132 73.5575 131.383 72.9624 130.635 72.5239C129.139 71.6156 127.207 71.1771 125.555 70.7073C124.371 70.3941 123.311 70.2688 122.719 69.799C122.127 69.4858 121.971 69.2039 121.971 68.8907C121.971 68.5774 122.127 68.2956 122.408 67.9823C122.844 67.6691 123.592 67.5438 124.807 67.5438C126.459 67.5438 128.236 67.9823 129.888 69.0473L130.791 69.4858L132.88 64.3804L132.287 63.9419C130.199 62.5951 127.488 62 124.963 62C121.971 62 119.727 62.7517 118.075 64.0985C116.424 65.4453 115.675 67.262 115.675 69.2039C115.675 70.3941 115.987 71.459 116.423 72.3673C116.86 73.2756 117.608 73.8707 118.356 74.3092C119.852 75.2175 121.784 75.656 123.436 76.1259C124.62 76.4391 125.68 76.5644 126.272 77.0342C126.864 77.3474 127.02 77.6293 127.02 77.9425C127.02 78.2557 126.864 78.5376 126.584 78.6942C126.147 79.0074 125.4 79.1327 124.028 79.1327C121.784 79.1327 119.54 78.381 117.888 77.1908L117.016 76.5644ZM30.2477 84.238V62.4385H25.1363L18.2485 74.0273L11.0802 62.4385H6V84.238H11.984V74.6224L16.472 82.1395H19.464L23.952 74.4658V84.238H30.2477ZM55.6797 84.238H62.2558L52.6877 62.4385H46.9842L37.2602 84.238H43.6805L49.6645 69.9556L55.6797 84.238ZM69.2683 62.4385V84.238H79.1482C82.5765 84.238 85.5685 83.1731 87.6878 81.2312C89.8072 79.2893 90.9915 76.5644 90.9915 73.2756C90.9915 69.9869 89.8072 67.262 87.6878 65.32C85.5997 63.3781 82.6077 62.3132 79.1482 62.3132L69.2683 62.4385ZM99.9363 84.238H106.232V62.4385H99.9363V84.238ZM193 62.4385H186.704V73.119L178.04 62.4385H172.96V84.238H179.256V73.5575L187.92 84.238H193V62.4385ZM75.7198 78.6629V67.9823H79.0235C80.8312 67.9823 82.3272 68.5775 83.1998 69.4858C84.0725 70.3941 84.6958 71.7409 84.6958 73.4009C84.6958 75.0609 84.1037 76.4077 83.1998 77.3161C82.296 78.2244 80.8 78.8195 79.0235 78.8195H75.7198V78.6629ZM152.296 84.5513C159.028 84.5513 164.108 79.8844 164.108 73.2756C164.108 66.6669 159.028 62 152.296 62C145.564 62 140.484 66.8235 140.484 73.2756C140.484 79.8844 145.564 84.5513 152.296 84.5513ZM152.296 78.9761C149.148 78.9761 146.905 76.721 146.905 73.4009C146.905 70.0809 149.148 67.8257 152.296 67.8257C155.444 67.8257 157.688 70.0809 157.688 73.4009C157.688 76.721 155.444 78.9761 152.296 78.9761Z" fill="white"/>
<path d="M136 113.5C136 115.387 134.387 117 132.5 117C130.613 117 129 115.387 129 113.5C129 111.613 130.613 110 132.5 110C134.387 110 136 111.613 136 113.5Z" fill="white"/>
</svg>
