<svg width="200" height="200" viewBox="0 0 200 200" fill="none" xmlns="http://www.w3.org/2000/svg">
<g clip-path="url(#clip0_2416_147)">
<path d="M197 120.047C197 119.608 197 119.154 197 118.683C197 118.182 196.951 117.696 196.851 117.226C196.785 116.755 196.735 116.285 196.702 115.815C196.669 115.345 196.603 114.906 196.504 114.498H168.874L160.49 126.96H181.722C181.093 129.061 180.184 130.973 178.993 132.697C177.836 134.39 176.447 135.864 174.826 137.118V137.165C173.14 138.419 171.271 139.406 169.221 140.127C167.204 140.817 165.054 141.162 162.772 141.162C162.706 141.162 162.64 141.162 162.574 141.162C162.541 141.162 162.524 141.162 162.524 141.162C159.548 141.162 156.737 140.598 154.091 139.469C151.446 138.34 149.18 136.835 147.295 134.954C145.344 132.979 143.807 130.722 142.682 128.183C141.558 125.643 140.996 122.932 140.996 120.047C140.996 120.016 140.996 120 140.996 120C140.996 119.969 140.996 119.922 140.996 119.859C140.996 117.006 141.558 114.326 142.682 111.818C143.807 109.278 145.361 107.068 147.345 105.187C149.296 103.306 151.595 101.801 154.24 100.672C156.886 99.5438 159.697 98.9795 162.673 98.9795C162.673 98.9795 162.69 98.9795 162.723 98.9795C162.756 98.9795 162.772 98.9795 162.772 98.9795C162.772 98.9795 162.789 98.9795 162.822 98.9795C162.888 98.9795 162.921 98.9795 162.921 98.9795C164.178 98.9795 165.418 99.0893 166.642 99.3087C167.898 99.4967 169.105 99.7789 170.263 100.155L170.015 100.061C171.205 100.469 172.313 100.939 173.338 101.472C174.363 102.005 175.322 102.585 176.215 103.212V103.165L179.936 97.5686L183.656 91.9254C182.267 91.0163 180.779 90.2012 179.192 89.4801C177.638 88.759 176.017 88.1477 174.33 87.6461L174.082 87.5519C172.429 87.113 170.66 86.7682 168.775 86.5174C166.889 86.2352 164.988 86.0941 163.07 86.0941C163.004 86.0941 162.954 86.0941 162.921 86.0941C162.921 86.0941 162.888 86.0941 162.822 86.0941C162.789 86.0941 162.739 86.0941 162.673 86.0941C162.64 86.0941 162.59 86.0941 162.524 86.0941C159.978 86.0941 157.497 86.3136 155.083 86.7525C152.702 87.1914 150.387 87.8498 148.139 88.7276L148.436 88.6335C146.254 89.5426 144.22 90.5929 142.335 91.7842C140.45 92.9755 138.73 94.308 137.176 95.7814C135.324 97.6311 133.753 99.4495 132.463 101.236C131.207 103.086 130.165 104.889 129.338 106.644C128.512 108.4 127.834 110.171 127.305 111.958C126.808 113.683 126.362 115.391 125.965 117.084C125.205 120.408 124.411 123.574 123.584 126.583C122.757 129.593 121.054 132.305 118.475 134.719C117.483 135.691 116.391 136.584 115.201 137.4C114.043 138.183 112.836 138.842 111.579 139.375L111.431 139.469C110.174 139.939 108.851 140.315 107.462 140.597C106.106 140.88 104.668 141.021 103.147 141.021C103.147 141.021 103.114 141.021 103.047 141.021C103.014 141.021 102.998 141.021 102.998 141.021C99.9224 141.021 97.0286 140.456 94.3168 139.328C91.605 138.199 89.224 136.663 87.1736 134.719C85.1894 132.869 83.6021 130.659 82.4114 128.088C81.2211 125.486 80.6259 122.727 80.6259 119.812C80.6259 116.99 81.2045 114.325 82.3618 111.817C83.5194 109.278 85.1067 107.068 87.1239 105.187C89.1412 103.274 91.5057 101.754 94.2175 100.625C96.9293 99.4652 99.8231 98.8852 102.899 98.8852C104.188 98.8852 105.445 98.995 106.669 99.2144C107.892 99.4024 109.099 99.6689 110.29 100.014H110.091C111.282 100.359 112.373 100.798 113.365 101.331C114.357 101.832 115.316 102.396 116.242 103.023H116.143L119.913 97.4273L123.733 91.7372C122.377 90.8593 120.905 90.0599 119.318 89.3389C117.764 88.6178 116.127 88.0065 114.407 87.5048H114.208C112.555 87.0032 110.786 86.627 108.901 86.3762C107.049 86.1254 105.147 86 103.196 86C103.163 86 103.113 86 103.047 86C103.014 86 102.981 86 102.948 86C102.948 86 102.931 86 102.899 86C102.865 86 102.849 86 102.849 86C99.7733 86 96.797 86.3605 93.9198 87.0816C91.0759 87.7713 88.3972 88.7432 85.8838 89.9972L86.0327 89.9501C83.5523 91.1415 81.2706 92.5993 79.1871 94.3235C77.1036 96.0478 75.2518 97.9446 73.6312 100.014L73.5321 100.061C72.8707 98.1797 71.9114 96.4711 70.6548 94.9349C69.3982 93.3674 67.91 92.0664 66.1903 91.0318H66.1406C64.322 89.9031 62.3212 89.0253 60.1384 88.3983C57.956 87.74 55.6739 87.4108 53.293 87.4108C53.1937 87.4108 53.1112 87.4108 53.045 87.4108C52.9787 87.4108 52.9291 87.4108 52.8962 87.4108H21V152.589H56.2199C56.2861 152.589 56.352 152.589 56.4182 152.589C56.4844 152.589 56.5341 152.589 56.5672 152.589C58.6838 152.589 60.7011 152.338 62.619 151.837C64.537 151.366 66.356 150.692 68.0757 149.815L67.9267 149.862C69.5471 149.015 71.0023 148.012 72.292 146.852C73.6147 145.661 74.7227 144.344 75.6155 142.901L75.7148 142.761C77.302 144.485 79.0714 146.021 81.0224 147.369C82.9738 148.717 85.0408 149.893 87.2232 150.896L87.4712 150.943C89.654 151.883 92.0019 152.62 94.5154 153.153C97.0286 153.718 99.641 154 102.353 154C102.353 154 102.37 154 102.402 154C102.436 154 102.469 154 102.502 154C102.568 154 102.618 154 102.65 154C102.684 154 102.733 154 102.799 154C105.875 154 108.868 153.639 111.778 152.918C114.688 152.228 117.4 151.225 119.913 149.909L119.764 150.05C122.344 148.764 124.675 147.244 126.759 145.488C128.842 143.701 130.694 141.726 132.315 139.563L132.364 139.422C133.952 141.616 135.77 143.607 137.821 145.394C139.904 147.15 142.153 148.654 144.567 149.909L144.716 150.003C147.229 151.257 149.941 152.229 152.851 152.918C155.761 153.639 158.787 154 161.929 154C161.929 154 161.946 154 161.979 154C162.012 154 162.061 154 162.128 154C162.16 154 162.193 154 162.227 154C162.26 154 162.276 154 162.276 154C164.69 154 167.038 153.765 169.32 153.295C171.602 152.824 173.785 152.15 175.868 151.272C177.985 150.426 179.969 149.391 181.821 148.169C183.673 146.915 185.376 145.519 186.93 143.983C188.517 142.479 189.923 140.817 191.147 138.999C192.37 137.212 193.412 135.315 194.272 133.308C195.132 131.302 195.793 129.201 196.256 127.007C196.752 124.844 197 122.587 197 120.235C197 120.204 197 120.172 197 120.141C197 120.11 197 120.079 197 120.047ZM35.8323 113.887V99.4497H52.7477C52.7808 99.4497 52.7973 99.4497 52.7973 99.4497C53.8557 99.4497 54.8312 99.6378 55.724 100.014C56.6171 100.359 57.4271 100.861 58.1547 101.519H58.1051C58.7995 102.177 59.3289 102.93 59.6927 103.776C60.0892 104.623 60.2878 105.532 60.2878 106.504C60.2878 106.504 60.2878 106.52 60.2878 106.551C60.2878 106.582 60.2878 106.598 60.2878 106.598C60.2878 106.661 60.2878 106.692 60.2878 106.692C60.2878 106.692 60.2878 106.723 60.2878 106.786C60.2878 107.727 60.0892 108.636 59.6927 109.514C59.3289 110.36 58.8161 111.113 58.1547 111.771H58.1051C57.4106 112.429 56.6171 112.947 55.724 113.323C54.8312 113.699 53.8557 113.887 52.7973 113.887C52.7973 113.887 52.7803 113.887 52.7477 113.887L35.8323 113.887ZM35.8323 140.551V125.737H56.0215C56.0546 125.737 56.0712 125.737 56.0712 125.737C57.1625 125.737 58.1877 125.925 59.1467 126.302C60.1388 126.678 61.0154 127.18 61.7757 127.807C62.5033 128.465 63.0823 129.249 63.512 130.158C63.942 131.067 64.1568 132.023 64.1568 133.026C64.1568 133.026 64.1568 133.043 64.1568 133.073C64.1568 134.139 63.9419 135.127 63.512 136.036C63.0823 136.945 62.4868 137.745 61.7264 138.434C60.9988 139.124 60.1388 139.657 59.1467 140.033C58.1877 140.409 57.146 140.598 56.0215 140.598H35.8323V140.551Z" fill="white"/>
</g>
<defs>
<clipPath id="clip0_2416_147">
<rect width="176" height="114" fill="white" transform="translate(12 43)"/>
</clipPath>
</defs>
</svg>
