<svg width="200" height="200" viewBox="0 0 200 200" fill="none" xmlns="http://www.w3.org/2000/svg">
<path d="M136 113.5C136 115.387 134.387 117 132.5 117C130.613 117 129 115.387 129 113.5C129 111.613 130.613 110 132.5 110C134.387 110 136 111.613 136 113.5Z" fill="white"/>
<g clip-path="url(#clip0_2439_167)">
<path d="M175 78.9503H120.076V64.9668H175V78.9503Z" fill="white"/>
<path d="M167.866 78.9501H120.076V43.9761H167.866V78.9501Z" fill="white"/>
<path d="M148.122 78.9502H120.076V30H148.122V78.9502Z" fill="white"/>
<path d="M153.64 78.95H120.076V35.4619H153.64V78.95Z" fill="white"/>
<path d="M120.068 35.4702V78.9456H148.119V35.4702H120.068Z" fill="white"/>
<path d="M91.9531 78.9502H120.077V85.9427H91.9531V78.9502Z" fill="white"/>
<path d="M120.068 43.9683V78.9455H153.656V43.9683H120.068Z" fill="white"/>
<path d="M120.068 43.9683V78.9455H148.119V43.9683H120.068Z" fill="white"/>
<path d="M137.615 78.95H120.076V57.958H137.615V78.95Z" fill="white"/>
<path d="M120.068 64.9766V78.9456H167.882V64.9766H120.068Z" fill="white"/>
<path d="M120.068 64.9766V78.9456H153.656V64.9766H120.068Z" fill="white"/>
<path d="M120.068 64.9766V78.9456H148.119V64.9766H120.068Z" fill="white"/>
<path d="M120.068 64.9766V78.9456H137.632V64.9766H120.068Z" fill="white"/>
<path d="M126.191 105.287C121.406 106.133 118.854 109.729 118.854 115.97C118.854 122.317 122.256 126.548 127.254 126.548C129.7 126.548 131.827 125.701 136.293 123.48C136.293 128.663 136.293 128.663 136.293 128.663C130.87 131.202 127.68 131.836 123.426 131.836C118.641 131.836 115.238 130.673 112.58 127.817C109.815 125.067 108.326 121.47 108.326 117.345C108.326 108.354 115.132 102.114 125.021 102.114C131.508 102.114 136.08 105.181 136.08 109.518C136.08 112.374 133.954 114.384 130.87 114.384C129.275 114.384 127.999 113.855 126.191 112.903" fill="white"/>
<path d="M102.266 117.345C106.626 111.951 108.221 109.729 108.221 107.085C108.221 104.441 106.094 102.114 103.116 102.114C101.415 102.114 99.8199 103.066 99.0755 103.912C99.0755 115.018 99.0755 115.018 99.0755 115.018C91.9509 124.538 91.9509 124.538 91.9509 124.538C91.9509 102.96 91.9509 102.96 91.9509 102.96C85.1453 102.96 85.1453 102.96 85.1453 102.96C73.8734 121.47 73.8734 121.47 73.8734 121.47C73.8734 102.96 73.8734 102.96 73.8734 102.96C70.0453 102.96 70.0453 102.96 70.0453 102.96C59.7305 105.287 59.7305 105.287 59.7305 105.287C59.7305 107.931 59.7305 107.931 59.7305 107.931C65.3664 108.46 65.3664 108.46 65.3664 108.46C65.3664 131.413 65.3664 131.413 65.3664 131.413C72.491 131.413 72.491 131.413 72.491 131.413C83.3375 113.643 83.3375 113.643 83.3375 113.643C83.3375 131.413 83.3375 131.413 83.3375 131.413C91.3129 131.413 91.3129 131.413 91.3129 131.413" fill="white"/>
<path d="M38.143 127.817C38.9937 127.817 39.2063 127.817 39.738 127.817C45.4803 127.817 48.6704 124.326 48.6704 117.345C48.6704 111.528 46.1183 108.354 41.3331 108.354C40.6951 108.354 39.738 108.46 38.143 108.777V127.817ZM38.143 140.298C42.8218 141.356 42.8218 141.356 42.8218 141.356C42.8218 144 42.8218 144 42.8218 144C24.4254 144 24.4254 144 24.4254 144C24.4254 141.356 24.4254 141.356 24.4254 141.356C28.6789 140.298 28.6789 140.298 28.6789 140.298C28.6789 108.354 28.6789 108.354 28.6789 108.354C24 108.354 24 108.354 24 108.354C24 105.71 24 105.71 24 105.71C35.1655 102.325 35.1655 102.325 35.1655 102.325C38.143 102.325 38.143 102.325 38.143 102.325C38.143 106.133 38.143 106.133 38.143 106.133C43.3535 102.96 45.1613 102.431 47.9261 102.431C54.0937 102.431 58.7725 108.143 58.7725 116.076C58.7725 125.172 52.4986 131.413 42.9282 131.413C41.8648 131.413 40.057 131.307 38.143 131.201" fill="white"/>
</g>
<defs>
<clipPath id="clip0_2439_167">
<rect width="151" height="114" fill="white" transform="translate(24 30)"/>
</clipPath>
</defs>
</svg>
