<svg width="200" height="200" viewBox="0 0 200 200" fill="none" xmlns="http://www.w3.org/2000/svg">
<path d="M114.357 83.3365C114.357 76.0588 119.284 69.0005 121.972 70.3301C125.036 71.8661 119.675 78.7207 114.357 83.3365ZM80.8549 85.9879C80.8549 80.1365 86.6279 69.0188 90.1544 70.1943C94.3236 71.584 86.7011 82.7984 80.8549 85.9879ZM75.0008 127.836C72.3468 127.956 70.5704 126.258 70.5704 123.424C70.5704 115.809 81.137 108.534 89.1174 104.629C87.7015 115.261 84.1097 127.426 75.0008 127.836ZM123.751 103.022C117.724 103.022 113.119 107.455 113.119 112.771C113.119 117.204 115.783 120.749 119.318 120.749C120.569 120.749 121.807 120.036 121.807 118.453C121.807 116.136 118.751 115.579 118.981 112.134C119.135 109.861 121.277 108.341 123.403 108.341C127.653 108.341 129.641 112.46 129.641 116.711C129.469 123.275 124.636 127.833 118.973 127.833C111.523 127.833 106.737 120.749 106.737 113.124C106.737 101.771 114.187 97.3407 118.09 96.2828C118.126 96.2828 128.283 98.0878 127.967 93.6104C127.82 91.6408 124.892 90.8833 122.776 90.8023C120.423 90.7109 118.045 91.5572 118.045 91.5572C116.812 90.9303 115.956 89.7051 115.425 88.2945C122.695 82.7931 127.836 77.4798 127.836 71.4508C127.836 68.2612 125.704 65.4243 121.627 65.4243C114.357 65.4243 108.861 74.6429 108.861 82.976C108.861 84.3892 108.861 85.8129 109.226 87.0511C104.613 90.4157 101.183 92.5133 94.9845 96.2358C94.9845 95.4599 95.1464 93.4563 95.6689 90.865C97.7926 88.5584 100.711 85.1024 100.711 82.4405C100.711 81.2023 100.008 80.1339 98.5763 80.1339C95.0367 80.1339 92.3827 85.4576 91.6722 89.1801C90.0761 91.1393 86.8839 93.6209 84.2194 93.6209C82.0957 93.6209 81.3825 91.6695 81.2023 90.9564C87.9419 88.6498 96.2749 79.4312 96.2749 71.0981C96.2749 69.3296 95.5644 65.4243 90.2485 65.4243C82.2707 65.4243 75.5415 77.3074 75.5415 86.5156C72.6968 86.5156 71.6389 83.5063 71.6389 81.1997C71.6389 78.8904 72.5244 76.5943 72.5244 75.8811C72.5244 75.1706 72.1691 74.2877 71.1007 74.2877C68.4467 74.2877 66.8506 77.8325 66.8506 81.9102C67.0335 87.584 70.7533 91.1393 75.714 91.4867C76.4245 94.8591 79.4338 98.0513 83.1536 98.0513C85.4629 98.0513 88.2971 97.3407 90.2485 95.5722C90.0761 96.8104 89.9037 97.8789 89.7208 98.9368C81.9154 103.022 76.2416 105.857 71.1007 110.465C67.0335 114.192 64.7269 119.153 64.7269 123.048C64.7269 128.374 68.0914 133.335 75.0034 133.335C83.1536 133.335 89.3655 126.778 92.3827 117.732C93.7959 113.482 94.3628 107.291 94.7259 101.609C102.871 96.9933 106.737 94.334 110.995 91.3143C111.525 92.1998 112.061 92.9078 112.763 93.438C109.044 95.3894 100.18 100.888 100.18 113.827C100.18 123.045 106.379 133.332 118.62 133.332C128.724 133.332 135.636 124.997 135.636 117.016C135.634 109.754 131.556 103.022 123.751 103.022ZM154.233 118.252C154.207 118.307 154.107 118.38 153.906 118.314C153.75 118.26 153.716 118.186 153.716 118.085C153.723 117.985 155.858 111.674 155.839 104.443C155.821 96.6276 152.65 91.8393 148.583 91.8393C146.093 91.8393 144.322 93.6183 144.322 96.2828C144.322 101.068 150.168 101.426 150.168 111.883C150.168 116.133 149.283 120.211 147.872 124.641C141.305 146.798 120.386 157.085 100.008 157.085C90.6064 157.085 83.9295 155.152 81.9442 154.262C81.8632 154.215 81.7874 154.06 81.8527 153.904C81.8971 153.786 82.0356 153.695 82.1166 153.731C82.9211 154.042 88.655 155.847 95.7499 155.847C103.547 155.847 108.161 152.658 108.161 148.752C108.161 146.273 106.209 144.322 103.73 144.322C98.942 144.322 98.5789 150.348 88.2998 150.348C83.8694 150.348 79.9667 149.463 75.3613 148.039C53.3714 141.305 42.9042 120.569 42.912 100.005C42.9198 89.9847 45.7306 82.0042 45.775 81.9311C45.8116 81.8789 45.937 81.8214 46.0911 81.8789C46.2478 81.9311 46.2818 82.0591 46.274 82.1061C46.0206 82.9368 44.158 88.655 44.158 95.7499C44.158 103.555 47.3476 108.161 51.4253 108.161C53.7241 108.161 55.6754 106.392 55.6754 103.911C55.6754 99.1171 49.8214 98.5868 49.8214 88.3024C49.8214 83.8694 50.7148 79.9667 52.128 75.3613C58.8676 53.3766 79.614 43.074 100.003 42.9146C109.477 42.8415 117.766 45.6784 118.085 45.9318C118.139 45.9788 118.194 46.0989 118.139 46.2426C118.064 46.415 117.954 46.4333 117.902 46.4229C117.802 46.415 112.411 44.1607 104.25 44.1607C96.6276 44.1528 91.8393 47.345 91.8393 51.4279C91.8393 53.7267 93.6183 55.678 96.2697 55.678C101.058 55.678 101.413 49.8318 111.7 49.8318C116.12 49.8318 120.025 50.7069 124.631 52.1306C146.798 58.8676 156.884 79.7864 157.075 100.003C157.179 110.355 154.262 118.186 154.233 118.252ZM100.005 39.0171C66.3203 39.0171 39.0198 66.3099 39.0198 100.003C39.0198 133.688 66.3203 160.98 100.005 160.98C133.682 160.98 160.983 133.688 160.983 100.003C160.983 66.4927 133.682 39.0171 100.005 39.0171ZM100.005 164C64.7242 164 36 135.459 36 100.005C36 64.7138 64.7242 36 100.005 36C135.276 36 164 64.7138 164 100.005C164 135.459 135.276 164 100.005 164Z" fill="white"/>
</svg>
