<svg width="200" height="200" viewBox="0 0 200 200" fill="none" xmlns="http://www.w3.org/2000/svg">
<g clip-path="url(#clip0_2490_230)">
<g clip-path="url(#clip1_2490_230)">
<path d="M47.411 95.9656H42.3868V84.6469H47.2737C48.5919 84.6469 49.4151 85.4782 49.4151 86.6048C49.4151 87.7315 48.5919 88.5357 47.2737 88.5357H41.6874V91.8085H47.411C48.9487 91.8085 49.7719 92.7739 49.7719 93.8997C49.7719 95.1875 48.8934 95.9656 47.411 95.9656ZM50.2384 90.0379C51.9687 89.6894 53.3966 88.1872 53.3966 85.9347C53.3966 83.5473 51.6119 81.375 48.1246 81.375H38.4883V99.2645H48.4269C51.9134 99.2645 53.7526 97.1185 53.7526 94.4365C53.7526 92.1832 52.1881 90.3333 50.2384 90.0379Z" fill="white"/>
<path d="M65.1655 89.5552H60.9507V92.9081H63.9302L67.5264 99.2645H72.0012L67.8832 92.4515C69.8606 91.9958 71.8915 90.3063 71.8915 87.1415M71.8915 87.1415C71.8915 83.8156 69.5582 81.375 65.7417 81.375H57.1758V99.2645H61.0743V84.7279H65.1655C66.7308 84.7279 67.9109 85.6394 67.9109 87.1415C67.9109 88.6437 66.7308 89.5552 65.1655 89.5552" fill="white"/>
<path d="M101.529 92.8811L104.384 85.1836L107.24 92.8811H101.529ZM101.941 81.375L94.8574 99.2645H99.3046L100.458 96.234H108.31L109.436 99.2645H113.884L106.828 81.375H101.941Z" fill="white"/>
<path d="M124.473 95.9121H121.151V84.7276H124.473C128.234 84.7276 130.211 87.1682 130.211 90.3338C130.211 93.3643 128.097 95.9121 124.473 95.9121ZM124.473 81.3755H117.252V99.265H124.473C130.211 99.265 134.191 95.7248 134.191 90.3338C134.191 84.9428 130.211 81.3755 124.473 81.3755Z" fill="white"/>
<path d="M193.254 81.3716L188.452 88.9561L183.65 81.3716H179.34V99.2644H183.239V87.5701L187.437 93.8063C187.918 94.5189 188.987 94.5189 189.467 93.8063L193.665 87.5701V99.2644H197.565V81.3716H193.254Z" fill="white"/>
<path d="M84.2543 96.0999C81.0123 96.0999 78.3851 93.5324 78.3851 90.3661C78.3851 87.1989 81.0123 84.6314 84.2543 84.6314C87.4954 84.6314 90.1235 87.1989 90.1235 90.3661C90.1235 93.5324 87.4954 96.0999 84.2543 96.0999ZM84.2543 80.9341C78.9219 80.9341 74.5996 85.1567 74.5996 90.3661C74.5996 95.5746 78.9219 99.7973 84.2543 99.7973C89.5858 99.7973 93.909 95.5746 93.909 90.3661C93.909 85.1567 89.5858 80.9341 84.2543 80.9341Z" fill="white"/>
<path d="M151.739 93.14C150.738 94.904 148.814 96.0994 146.603 96.0994C143.362 96.0994 140.734 93.532 140.734 90.3656C140.734 87.1984 143.362 84.6318 146.603 84.6318C148.796 84.6318 150.704 85.8083 151.712 87.5486L154.45 84.874C152.698 82.489 149.837 80.9336 146.603 80.9336C141.271 80.9336 136.949 85.1562 136.949 90.3656C136.949 95.5741 141.271 99.7976 146.603 99.7976C149.855 99.7976 152.73 98.225 154.479 95.8171L151.739 93.14Z" fill="white"/>
<path d="M166.93 96.0999C163.688 96.0999 161.061 93.5324 161.061 90.3661C161.061 87.1989 163.688 84.6314 166.93 84.6314C170.171 84.6314 172.799 87.1989 172.799 90.3661C172.799 93.5324 170.171 96.0999 166.93 96.0999ZM166.93 80.9341C161.598 80.9341 157.275 85.1567 157.275 90.3661C157.275 95.5746 161.598 99.7973 166.93 99.7973C172.262 99.7973 176.585 95.5746 176.585 90.3661C176.585 85.1567 172.262 80.9341 166.93 80.9341Z" fill="white"/>
<path d="M17.8343 103.781C25.3442 103.781 31.4322 97.8341 31.4322 90.4978C31.4322 83.1616 25.3442 77.2144 17.8343 77.2144C10.3243 77.2144 4.23633 83.1616 4.23633 90.4978C4.23633 97.8341 10.3243 103.781 17.8343 103.781Z" fill="#989898"/>
<path d="M29.8163 94.0864C28.261 93.4809 26.8373 93.6838 25.4102 94.529C25.4102 94.529 24.8901 94.8391 24.7343 94.9348C24.0694 95.3423 23.4421 95.7285 22.8391 95.7285C22.2637 95.7285 21.6976 95.5779 21.458 94.4906C21.0845 92.7945 20.1733 88.6267 19.7755 86.5624C19.5418 85.349 19.4137 84.6953 19.2805 84.251C19.046 83.4705 18.6172 83.0458 18.0084 82.9779C18.0084 82.9779 17.9129 82.9648 17.835 82.9648C17.758 82.9648 17.6524 82.9796 17.6524 82.9796C17.0494 83.0499 16.6231 83.4746 16.3903 84.251C16.2572 84.6953 16.129 85.349 15.8954 86.5624C15.4975 88.6267 14.5863 92.7945 14.2128 94.4906C13.9733 95.5779 13.4071 95.7285 12.8318 95.7285C12.2288 95.7285 11.6015 95.3423 10.9365 94.9348C10.7807 94.8391 10.2598 94.529 10.2598 94.529C8.83355 93.6838 7.40897 93.4809 5.85457 94.0864C5.51873 94.2173 5.18795 94.3639 4.87305 94.512C5.08828 95.1714 5.35623 95.8205 5.66861 96.43C6.01283 96.2647 6.37382 96.1008 6.74232 95.9944C7.27329 95.8414 7.81767 95.8332 8.34529 96.0058C8.85784 96.1736 9.31428 96.4706 9.76904 96.7496C10.6258 97.2757 11.5965 97.8721 12.8318 97.8721C14.6626 97.8721 15.9473 96.8044 16.3577 94.9422C16.6759 93.4989 17.3811 90.2769 17.8342 88.0548C17.8342 88.0548 18.9949 93.4989 19.3124 94.9422C19.7227 96.8044 21.0083 97.8721 22.8391 97.8721C24.0744 97.8721 25.045 97.2757 25.9018 96.7496C26.3566 96.4706 26.813 96.1736 27.3256 96.0058C27.8523 95.8332 28.3976 95.8414 28.9285 95.9944C29.297 96.1008 29.6575 96.2649 30.0017 96.4302C30.3149 95.8206 30.5822 95.1713 30.7974 94.5119C30.4825 94.3638 30.1521 94.2173 29.8163 94.0864Z" fill="white"/>
</g>
</g>
<defs>
<clipPath id="clip0_2490_230">
<rect width="200" height="200" fill="white"/>
</clipPath>
<clipPath id="clip1_2490_230">
<rect width="201" height="27" fill="white" transform="translate(4 77)"/>
</clipPath>
</defs>
</svg>
