<svg width="200" height="200" viewBox="0 0 200 200" fill="none" xmlns="http://www.w3.org/2000/svg">
<path d="M30.0624 80.6346C26.829 77.7873 22.5971 76.3428 17.4812 76.3428H8L8.04795 107.146V107.217H17.9628C22.9494 107.217 27.0708 105.773 30.2062 102.925C33.3416 100.078 34.9364 96.3281 34.9364 91.782C34.9364 87.2359 33.2936 83.4819 30.0624 80.6346ZM30.1437 91.7778C30.1437 95.1525 28.9867 97.8998 26.7081 99.9404C24.4295 101.981 21.3712 102.998 17.5771 102.998H12.6009V80.5595H17.5771C21.3712 80.5595 24.4441 81.5872 26.7081 83.6153C28.9721 85.6434 30.1437 88.4032 30.1437 91.7778Z" fill="white"/>
<path d="M49.2805 83.5464C45.9804 83.5464 43.1681 84.7345 40.9229 87.0732C39.8121 88.2084 38.9372 89.5523 38.3486 91.0273C37.76 92.5023 37.4694 94.0793 37.4936 95.6672C37.4936 99.0315 38.6485 101.939 40.9229 104.311C41.9883 105.459 43.2827 106.37 44.7223 106.985C46.1619 107.601 47.7148 107.908 49.2805 107.886H49.3472V107.788C52.6514 107.774 55.4574 106.587 57.686 104.263C58.7973 103.128 59.6725 101.784 60.2611 100.309C60.8498 98.833 61.1401 97.2556 61.1153 95.6672C61.1399 94.0793 60.8495 92.5021 60.2609 91.027C59.6723 89.5519 58.7971 88.2081 57.686 87.0732C55.4428 84.7345 52.6139 83.5464 49.2805 83.5464ZM54.611 101.435C53.9642 102.186 53.1599 102.785 52.2553 103.19C51.3327 103.581 50.3389 103.777 49.3368 103.765C47.177 103.765 45.4342 103.002 44.0062 101.435C42.5782 99.8673 41.8631 97.9455 41.8631 95.7173C41.8631 93.489 42.5844 91.563 44.0062 90.0477C45.4279 88.5323 47.1916 87.7548 49.3368 87.7548C51.4819 87.7548 53.2455 88.5219 54.6194 90.0477C55.9932 91.5735 56.7166 93.4911 56.7166 95.7194C56.7539 97.8207 56.0028 99.8598 54.611 101.435Z" fill="white"/>
<path d="M76.7503 102.539C76.0519 103.332 75.0825 103.717 73.7754 103.717C71.6907 103.717 70.6713 102.546 70.6713 100.134V88.0444H77.1568V84.1237H70.6233V78.4082H66.2643V84.1237H62.418L62.5681 88.0028H66.3601V100.23C66.3601 102.669 66.9856 104.574 68.203 105.895C69.4205 107.217 71.0778 107.838 73.2938 107.838C75.6391 107.838 77.4987 107.169 78.8183 105.849L78.8559 105.812L76.8108 102.477L76.7503 102.539Z" fill="white"/>
<path d="M126.558 87.3943C124.64 84.8096 121.949 83.4985 118.555 83.4985C115.349 83.4985 112.649 84.67 110.533 86.9795C108.417 89.289 107.346 92.1905 107.346 95.6194C107.346 99.0962 108.434 102.021 110.581 104.311C112.728 106.602 115.432 107.79 118.559 107.79C121.907 107.79 124.605 106.431 126.562 103.751V107.217H130.972V84.0801H126.562L126.558 87.3943ZM124.461 89.9498C125.854 91.4839 126.558 93.3932 126.558 95.6194C126.6 97.7212 125.851 99.7621 124.461 101.339C123.815 102.089 123.011 102.689 122.107 103.094C121.185 103.485 120.191 103.681 119.189 103.669C117.029 103.669 115.284 102.906 113.858 101.339C112.432 99.7715 111.713 97.8497 111.713 95.6194C111.713 93.3891 112.434 91.4672 113.858 89.9519C115.282 88.4365 117.042 87.659 119.189 87.659C121.336 87.659 123.089 88.4344 124.461 89.9498Z" fill="white"/>
<path d="M147.925 94.8377C146.648 94.3708 145.347 93.9694 144.029 93.635C142.868 93.362 141.756 92.9113 140.733 92.2989C139.855 91.7424 139.424 91.0483 139.419 90.1603L139.509 89.9831V89.954C139.504 89.5432 139.605 89.1379 139.801 88.7773C139.998 88.4166 140.284 88.1126 140.633 87.8946C141.41 87.361 142.432 87.09 143.67 87.09C146.23 87.09 148.144 87.9467 149.524 89.7059L149.572 89.7664L152.209 87.1275L152.178 87.0816C150.479 84.7054 147.591 83.4985 143.572 83.4985C141.023 83.4985 138.973 84.1343 137.479 85.387C135.944 86.6752 135.198 88.1676 135.198 89.954C135.198 91.4902 135.642 92.7304 136.559 93.7434C137.471 94.7489 138.617 95.5143 139.895 95.9717C141.285 96.4865 142.528 96.9096 143.693 97.2682C144.828 97.5971 145.907 98.096 146.893 98.7481C147.779 99.3547 148.209 100.107 148.209 101.041C148.22 101.501 148.124 101.957 147.928 102.373C147.732 102.789 147.442 103.154 147.081 103.438C146.349 104.034 145.263 104.336 143.858 104.336C140.885 104.336 138.544 103.311 136.897 101.287L136.847 101.226L134.26 104.111L134.295 104.157C136.315 106.658 139.436 107.928 143.568 107.928C146.466 107.928 148.646 107.303 150.239 105.991C151.832 104.68 152.618 103.046 152.618 100.989C152.618 99.3547 152.171 98.0707 151.256 97.0535C150.345 96.0527 149.2 95.2918 147.925 94.8377Z" fill="white"/>
<path d="M167.402 83.4549C164.367 83.4549 162.063 84.5513 160.554 86.7149V74H156.145V107.165H160.552L160.65 93.7477C160.65 91.8863 161.16 90.3814 162.169 89.2787C163.178 88.1761 164.508 87.6675 166.299 87.6675C168.042 87.6675 169.407 88.2094 170.468 89.335C171.53 90.4606 172.034 91.9093 172.034 93.7561V107.217H176.443V93.0745C176.443 90.1167 175.636 87.8238 173.975 86.0667C172.313 84.3095 170.17 83.4549 167.402 83.4549Z" fill="white"/>
<path d="M99.0485 87.3945C97.1306 84.8098 94.4392 83.4987 91.0474 83.4987C87.8391 83.4987 85.1415 84.6702 83.0234 86.9797C80.9054 89.2892 79.8359 92.1907 79.8359 95.6196C79.8359 99.0964 80.9262 102.021 83.0735 104.312C85.2207 106.602 87.9121 107.79 91.0391 107.79C94.3746 107.79 97.0848 106.431 99.0402 103.751V107.217H103.449V74.0376H99.0402L99.0485 87.3945ZM96.9534 89.95C98.3439 91.4841 99.0485 93.3935 99.0485 95.6196C99.0898 97.721 98.3423 99.7616 96.9534 101.339C95.5733 102.907 93.8472 103.67 91.6708 103.67C89.4943 103.67 87.7682 102.907 86.3402 101.339C84.9122 99.7718 84.1971 97.8499 84.1971 95.6196C84.1971 93.3893 84.9184 91.4675 86.3402 89.9521C87.762 88.4367 89.5256 87.6592 91.6708 87.6592C93.8159 87.6592 95.5796 88.4346 96.9534 89.95Z" fill="white"/>
<path d="M160.827 116.02H156.109V141.018C156.109 144.113 157.014 146.36 158.799 147.688C160.385 148.868 162.864 149.491 166.168 149.543H166.237V145.583H166.17C164.584 145.541 163.404 145.283 162.664 144.816C161.444 144.032 160.827 142.569 160.827 140.461V129.852H166.247V125.925H160.827L160.827 116.02Z" fill="white"/>
<path d="M34.9831 125.22C33.1507 125.22 31.5434 125.673 30.205 126.565C28.9308 127.418 27.9045 128.593 27.2301 129.971C25.6729 126.811 23.0795 125.27 19.327 125.27C16.3855 125.27 14.1153 126.412 12.581 128.666V125.862H8.04883V149.652H12.581L12.7894 135.709C12.7894 133.748 13.2689 132.245 14.2487 131.111C15.2285 129.977 16.5586 129.456 18.3472 129.456C20.0317 129.456 21.4097 130.029 22.4437 131.163C23.4777 132.297 23.9572 133.764 23.9572 135.709V149.554H28.4413V135.709C28.4413 133.764 28.9354 132.276 29.9528 131.163C30.9951 130.014 32.3585 129.456 34.1013 129.456C35.8024 129.456 37.1637 130.029 38.1477 131.161C39.1317 132.293 39.607 133.808 39.607 135.709V149.554H44.135V135.017C44.135 132.017 43.3011 129.61 41.6458 127.859C39.9906 126.108 37.7558 125.22 34.9831 125.22Z" fill="white"/>
<path d="M59.7061 125.22C56.3706 125.22 53.5688 126.442 51.3673 128.847C49.1284 131.286 47.9922 134.267 47.9922 137.683C47.9922 141.191 49.1951 144.199 51.5674 146.619C53.9398 149.039 56.9314 150.246 60.5067 150.246H60.6171L60.5671 150.146C62.3111 150.149 64.0406 149.829 65.6684 149.203C67.1472 148.657 68.4875 147.792 69.5939 146.669L69.6335 146.625L67.2298 143.498L67.1735 143.555C65.4516 145.276 63.2397 146.152 60.6046 146.152C58.3969 146.152 56.602 145.479 55.1198 144.095C53.6557 142.727 52.7366 140.876 52.5327 138.884H71.2741L71.2887 138.834C71.4067 138.309 71.4572 137.772 71.4388 137.235C71.4388 133.9 70.3027 131.034 68.0616 128.689C65.8414 126.394 63.0333 125.22 59.7061 125.22ZM59.8541 129.16C61.7033 129.16 63.2835 129.752 64.5489 130.919C65.8143 132.086 66.5794 133.681 66.9338 135.836H52.7745C53.1268 133.846 53.9086 132.268 55.1615 131.017C55.7647 130.405 56.4849 129.921 57.2793 129.593C58.0738 129.265 58.926 129.101 59.7853 129.11V129.16H59.8541Z" fill="white"/>
<path d="M89.252 126.223C88.4035 125.525 87.1944 125.17 85.6538 125.17C83.1939 125.17 81.2259 126.309 79.7958 128.553V125.769H75.2637V149.554H79.7958L79.6978 135.857C79.6978 133.867 80.1148 132.301 80.9174 131.207C81.293 130.669 81.7958 130.232 82.381 129.935C82.9662 129.639 83.6157 129.491 84.2717 129.506C85.3666 129.488 86.44 129.811 87.3424 130.431L87.4112 130.479L89.2874 126.256L89.252 126.223Z" fill="white"/>
<path d="M101.019 125.22C97.6832 125.22 94.8814 126.442 92.6799 128.847C90.4389 131.286 89.3027 134.267 89.3027 137.683C89.3027 141.191 90.5056 144.199 92.878 146.619C95.2504 149.039 98.2419 150.246 101.817 150.246H101.928L101.88 150.156C103.623 150.159 105.352 149.84 106.979 149.214C108.458 148.669 109.799 147.803 110.904 146.679L110.946 146.635L108.54 143.509L108.486 143.565C106.762 145.287 104.552 146.162 101.915 146.162C99.7074 146.162 97.9146 145.489 96.4324 144.105C94.9676 142.738 94.0484 140.887 93.8452 138.894H112.587L112.599 138.844C112.718 138.32 112.769 137.782 112.751 137.245C112.751 133.91 111.615 131.044 109.374 128.699C107.133 126.354 104.348 125.22 101.019 125.22ZM101.167 129.16C103.018 129.16 104.596 129.752 105.861 130.919C107.127 132.086 107.892 133.681 108.246 135.836H94.0871C94.4415 133.846 95.2212 132.268 96.4741 131.017C97.0773 130.405 97.7976 129.921 98.592 129.593C99.3864 129.265 100.239 129.101 101.098 129.11V129.16H101.167Z" fill="white"/>
<path d="M135.311 129.176C133.339 126.519 130.571 125.17 127.083 125.17C123.785 125.17 121.01 126.375 118.834 128.749C116.657 131.123 115.557 134.106 115.557 137.633C115.557 141.208 116.676 144.213 118.892 146.569C121.108 148.924 123.868 150.156 127.083 150.156C130.525 150.156 133.291 148.759 135.311 146.004V149.564H139.843V116.005H135.311V129.176ZM133.151 131.813C134.582 133.393 135.307 135.357 135.307 137.649C135.344 139.805 134.576 141.897 133.151 143.515C131.734 145.126 129.958 145.91 127.731 145.91C125.505 145.91 123.716 145.126 122.251 143.513C120.785 141.9 120.045 139.926 120.045 137.633C120.045 135.34 120.787 133.364 122.249 131.796C123.71 130.229 125.524 129.447 127.731 129.447C129.939 129.447 131.744 130.246 133.151 131.813Z" fill="white"/>
<path d="M190.041 127.809C188.331 126.002 186.117 125.122 183.274 125.122C180.147 125.122 177.783 126.248 176.229 128.472V115.942H171.697V149.501H176.229L176.329 135.707C176.329 133.791 176.855 132.247 177.891 131.111C178.927 129.975 180.299 129.454 182.137 129.454C183.905 129.454 185.35 130.029 186.434 131.161C187.518 132.293 188.045 133.808 188.045 135.707V149.551H192.578V135.017C192.578 131.974 191.748 129.616 190.041 127.809Z" fill="white"/>
<path d="M150.558 125.764H146.025V149.554H150.558V125.764Z" fill="white"/>
<path d="M150.537 116.014H146.049V120.501H150.537V116.014Z" fill="white"/>
</svg>
