<svg width="200" height="200" viewBox="0 0 200 200" fill="none" xmlns="http://www.w3.org/2000/svg">
<path d="M27.9708 78H29.7016C35.7104 78.1325 41.6212 80.5831 45.8666 84.9213C44.2991 86.544 42.6989 88.1005 41.164 89.7232C38.7801 87.5375 35.9063 85.8486 32.7713 85.2525C28.1341 84.259 23.1377 85.1531 19.2515 87.8355C15.0062 90.6504 12.1324 95.4192 11.5119 100.519C10.8262 105.553 12.2304 110.851 15.4634 114.759C18.5657 118.567 23.3009 120.952 28.1994 121.117C32.7713 121.382 37.5392 119.958 40.8701 116.713C43.4826 114.428 44.6909 110.951 45.0828 107.573C39.6618 107.573 34.2409 107.606 28.8199 107.573V100.751H51.6468C52.8224 108.07 51.1243 116.316 45.638 121.548C41.9804 125.257 36.9187 127.443 31.759 127.873C26.7625 128.37 21.6028 127.41 17.1615 124.959C11.8385 122.078 7.59316 117.21 5.50315 111.481C3.54376 106.215 3.5111 100.254 5.33987 94.9555C7.00535 90.1206 10.2057 85.8486 14.3204 82.8681C18.2718 79.9207 23.0723 78.298 27.9708 78Z" fill="white"/>
<path d="M160 80H166V126.992C164.009 126.992 161.991 127.025 160 126.959C160.028 111.328 160 95.6639 160 80Z" fill="white"/>
<path d="M67.4793 96.2921C71.6798 95.4689 76.2302 96.3909 79.6988 98.9921C82.8491 101.297 85.0448 104.919 85.713 108.87C86.5722 113.447 85.4903 118.452 82.6263 122.073C79.5397 126.123 74.48 128.297 69.5477 127.967C65.0291 127.704 60.6377 125.366 57.9647 121.547C54.9417 117.332 54.2098 111.537 55.8645 106.598C57.5192 101.297 62.1969 97.2469 67.4793 96.2921ZM68.434 102.548C66.7156 103.009 65.1245 104.03 63.979 105.479C60.8923 109.298 61.0832 115.521 64.4881 119.077C66.4292 121.119 69.3568 122.073 72.0616 121.514C74.5755 121.053 76.7712 119.308 77.9804 117.003C80.0806 113.085 79.476 107.685 76.262 104.622C74.1937 102.647 71.1706 101.824 68.434 102.548Z" fill="white"/>
<path d="M102.284 96.2946C107.403 95.3394 112.996 96.7229 116.827 100.215C123.064 105.65 123.742 115.828 118.42 122.087C115.199 126.04 109.979 128.214 104.826 127.983C99.9107 127.852 95.063 125.48 92.1477 121.56C88.8594 117.245 88.1475 111.315 90.012 106.276C91.8765 101.137 96.758 97.217 102.284 96.2946ZM103.301 102.553C101.47 103.014 99.7751 104.036 98.5547 105.452C95.3003 109.207 95.4359 115.334 98.9276 118.925C100.995 121.066 104.216 122.12 107.199 121.527C109.843 121.033 112.216 119.32 113.504 117.014C115.708 113.061 115.064 107.659 111.606 104.596C109.403 102.619 106.182 101.829 103.301 102.553Z" fill="white"/>
<path d="M131.55 98.189C135.254 95.8358 140.182 95.1821 144.176 97.2085C145.432 97.7641 146.463 98.7119 147.461 99.6598C147.494 98.7773 147.461 97.8622 147.494 96.947C149.652 96.9797 151.81 96.947 154 96.9797V125.807C153.968 130.154 152.873 134.762 149.78 137.932C146.398 141.429 141.213 142.508 136.542 141.789C131.55 141.037 127.201 137.344 125.269 132.67C127.201 131.722 129.231 130.971 131.228 130.088C132.355 132.768 134.642 135.056 137.508 135.579C140.375 136.102 143.693 135.383 145.561 132.964C147.558 130.48 147.558 127.081 147.461 124.042C145.98 125.513 144.273 126.82 142.211 127.31C137.734 128.585 132.806 127.016 129.359 123.944C125.881 120.871 123.819 116.132 124.012 111.426C124.109 106.098 127.072 100.967 131.55 98.189ZM138.217 102.373C136.252 102.699 134.416 103.811 133.16 105.347C130.132 109.007 130.132 114.858 133.192 118.453C134.932 120.577 137.734 121.754 140.44 121.46C142.984 121.198 145.336 119.564 146.592 117.309C148.718 113.485 148.363 108.288 145.497 104.955C143.725 102.895 140.891 101.882 138.217 102.373Z" fill="white"/>
<path d="M175.073 99.9043C179.088 96.2173 185.278 94.9663 190.431 96.9086C195.316 98.7192 198.427 103.295 200 108.003C192.739 110.965 185.512 113.895 178.252 116.858C179.255 118.734 180.795 120.446 182.869 121.138C185.78 122.158 189.26 121.796 191.702 119.887C192.672 119.162 193.442 118.208 194.178 117.286C196.018 118.504 197.859 119.689 199.699 120.907C197.089 124.759 192.706 127.458 187.988 127.886C182.769 128.512 177.214 126.536 173.835 122.52C168.281 116.2 168.816 105.599 175.073 99.9043ZM178.653 105.994C177.516 107.608 177.047 109.583 177.081 111.525C181.932 109.55 186.784 107.575 191.635 105.567C190.832 103.723 188.892 102.604 186.918 102.307C183.739 101.748 180.427 103.427 178.653 105.994Z" fill="white"/>
</svg>
