<svg width="200" height="200" viewBox="0 0 200 200" fill="none" xmlns="http://www.w3.org/2000/svg">
<path d="M179.786 97.8116C177.774 97.8116 176.021 98.4126 174.528 99.6116C173.782 100.195 173.245 100.909 172.923 101.754C172.632 102.37 172.24 103.699 171.756 105.743C171.399 107.14 170.766 109.735 169.857 113.53C169.567 114.828 169.599 116.093 169.953 117.327H163.287C163.969 116.288 164.503 114.926 164.892 113.24C165.607 110.351 166.597 106.118 167.862 100.538C168.089 99.4665 168.202 98.5897 168.202 97.9103C168.202 97.2919 168.071 96.6764 167.813 96.0609L173.75 94.1622L173.167 97.228C174.691 95.0535 176.151 93.9677 177.545 93.9677C178.39 93.9677 178.973 94.2928 179.298 94.9403C179.525 95.3961 179.687 96.3513 179.786 97.8116ZM157.358 105.793C155.509 106.376 153.674 106.977 151.86 107.593C149.621 108.565 148.5 109.863 148.5 111.486C148.5 112.006 148.721 112.485 149.159 112.923C149.595 113.359 150.123 113.579 150.739 113.579C152.62 113.547 154.147 112.769 155.314 111.242C156.386 109.849 157.068 108.031 157.358 105.793ZM164.024 99.4665C163.734 100.959 162.631 105.616 160.717 113.434C160.36 114.892 160.36 116.189 160.717 117.327H155.509L155.558 115.234C153.871 116.921 151.842 117.763 149.473 117.763C147.365 117.763 145.751 117.246 144.63 116.207C143.513 115.167 142.952 113.756 142.952 111.974C142.952 110.058 143.716 108.275 145.24 106.62C146.216 105.581 147.429 104.771 148.889 104.187C149.83 103.83 151.47 103.377 153.805 102.823C155.523 102.434 156.644 102.111 157.164 101.85C158.267 101.33 158.851 100.57 158.914 99.5652C158.981 98.4939 158.267 97.9597 156.775 97.9597C155.703 97.9597 154.536 98.2819 153.271 98.9323C151.68 99.7103 150.335 100.846 149.232 102.338C148.451 101.04 148.062 100.001 148.062 99.2226C148.062 97.7303 149.101 96.4645 151.177 95.428C153.125 94.4554 155.282 93.9677 157.652 93.9677C161.998 93.9677 164.172 95.4106 164.172 98.2993C164.172 98.6564 164.123 99.0455 164.024 99.4665ZM144.892 94.2115C144.503 95.3467 144.114 96.4006 143.725 97.3732C143.205 98.671 142.119 99.3213 140.464 99.3213H138.908C138.745 100.195 137.837 103.961 136.182 110.609C136.083 110.934 136.037 111.26 136.037 111.585C136.037 112.784 136.539 113.481 137.544 113.675C138.42 113.872 139.57 113.791 140.998 113.434C140.351 114.828 140.008 115.559 139.976 115.623C139.524 116.465 138.995 117.034 138.394 117.327C137.796 117.618 137.059 117.763 136.182 117.763C134.559 117.763 133.252 117.31 132.262 116.401C131.272 115.493 130.779 114.276 130.779 112.752C130.779 112.232 130.846 111.698 130.973 111.146L133.749 99.3213H131.461L132.532 95.1841H134.722L135.938 89.636L141.486 87.9811L139.782 95.1841H141.292C142.653 95.1841 143.855 94.859 144.892 94.2115ZM129.426 100.099L125.094 101.705C125.321 99.1732 123.974 97.9103 121.056 97.9103C118.524 97.9103 117.258 98.7523 117.258 100.439C117.258 101.023 117.52 101.502 118.036 101.876C118.556 102.248 119.709 102.791 121.494 103.505C123.701 104.382 125.19 105.209 125.971 105.987C127.008 106.992 127.527 108.388 127.527 110.174C127.527 112.151 126.717 113.887 125.094 115.379C123.344 116.97 121.169 117.763 118.574 117.763C116.141 117.763 113.983 117.229 112.102 116.157C110.218 115.086 109.277 113.774 109.277 112.218C109.277 111.373 109.846 109.962 110.981 107.982C111.013 109.021 111.582 110.142 112.686 111.341C114.111 112.964 115.993 113.774 118.33 113.774C119.497 113.774 120.519 113.449 121.396 112.801C122.272 112.151 122.711 111.341 122.711 110.368C122.711 109.555 122.11 108.876 120.908 108.324C119.935 107.869 118.28 107.122 115.946 106.086C113.673 105.145 112.538 103.36 112.538 100.732C112.538 98.6884 113.316 97.0567 114.875 95.8403C116.431 94.6238 118.379 94.017 120.713 94.017C123.114 94.017 125.086 94.5686 126.627 95.669C128.169 96.7722 129.101 98.25 129.426 100.099ZM109.036 100.082C108.386 102.744 107.283 107.439 105.727 114.172C105.433 115.429 105.465 116.483 105.822 117.327H99.1565C99.74 116.613 100.178 115.696 100.469 114.561C101.508 110.319 102.579 105.874 103.683 101.211C103.778 100.787 103.828 100.416 103.828 100.091C103.828 98.8974 103.195 98.2993 101.929 98.2993C100.341 98.2993 98.9532 98.8742 97.7687 100.018C96.5842 101.171 95.7829 102.622 95.359 104.364L93.0248 114.122C92.7664 115.162 92.7809 116.224 93.0741 117.327H86.4547C87.1369 116.384 87.6073 115.347 87.8657 114.212L91.2247 99.8555C91.4831 98.7842 91.3873 97.5213 90.9315 96.0609L96.8687 94.1622L96.2358 97.4719C98.6048 95.2654 101.087 94.1622 103.683 94.1622C105.338 94.1622 106.667 94.5744 107.672 95.4019C108.679 96.2235 109.181 97.3326 109.181 98.729C109.181 99.1819 109.132 99.6378 109.036 100.082ZM88.0602 94.258L83.4846 114.163C83.1943 115.461 83.2756 116.514 83.7285 117.327H76.8187C77.5329 116.677 77.9858 115.931 78.1803 115.086C79.4142 110.124 80.5494 105.273 81.5888 100.538C81.9778 98.7842 81.9604 97.3906 81.5394 96.3512L88.0602 94.258ZM89.2766 89.4908C89.2766 90.3647 88.9921 91.1602 88.426 91.8744C87.8569 92.5886 87.1514 92.9457 86.3095 92.9457C84.4253 92.9457 83.4846 91.9876 83.4846 90.0744C83.4846 89.1018 83.8011 88.2656 84.434 87.5689C85.0669 86.8692 85.8218 86.5208 86.6985 86.5208C88.4173 86.5208 89.2766 87.5108 89.2766 89.4908ZM83.4295 87.0579C83.4295 90.0105 81.612 94.1796 77.98 99.5652C76.2264 102.158 72.0428 108.08 65.4234 117.327H59.9246L59.1465 106.765C57.2652 109.393 54.751 112.914 51.6038 117.327H46.1515L43.9624 89.2963C43.704 86.0504 43.1843 83.6669 42.4062 82.1426H49.9489C49.4612 83.4404 49.2493 84.6249 49.316 85.6933L50.9215 109.93L58.5136 98.639L57.7849 89.2963C57.5236 86.1172 56.9894 83.7307 56.1765 82.1426H63.7685C63.2488 83.4404 63.0224 84.6249 63.0862 85.6933L64.7411 109.831C67.1102 106.362 70.1122 101.818 73.7441 96.2061C76.3077 92.0544 77.5881 89.1337 77.5881 87.4469C77.5881 84.9472 75.8548 83.6988 72.3825 83.6988H71.799C73.2593 81.4284 74.8967 80.2933 76.7142 80.2933C78.5287 80.2933 80.1052 80.9349 81.4349 82.2152C82.7646 83.4956 83.4295 85.1098 83.4295 87.0579ZM147.746 51.5015L150.44 59.6888L158.938 59.6336L152.103 64.8101L154.664 72.7883L147.746 67.9747L140.83 72.7883L143.388 64.8101L136.553 59.6336L145.051 59.6888L147.746 51.5015ZM111.911 135.603C97.1997 135.603 84.0391 128.967 75.2568 118.524H73.7238L74.6006 117.725C73.1577 115.934 71.8425 114.035 70.6667 112.046C69.247 114.041 67.8215 116.033 66.396 118.024L66.0708 118.48C74.8532 134.1 91.5847 144.653 110.778 144.653C129.957 144.653 146.671 134.117 155.46 118.524H154.284L154.304 117.708C152.861 118.538 151.247 118.962 149.473 118.962C149.064 118.962 148.649 118.942 148.239 118.901C139.46 129.126 126.441 135.603 111.911 135.603ZM84.5675 116.183C84.8085 116.317 85.0466 116.448 85.2875 116.578C85.0379 116.413 84.7911 116.244 84.5472 116.073C84.553 116.111 84.5617 116.146 84.5675 116.183ZM62.9382 80.9465C63.7772 75.4274 65.4843 70.2015 67.9057 65.4111C64.9676 70.126 62.7611 75.3577 61.4546 80.9465H62.9382ZM129.92 97.7361C135.839 86.753 131.888 73.0032 120.957 66.8656C117.627 64.993 114.024 64.0437 110.45 63.9362C113.121 64.273 115.769 65.1063 118.257 66.5085C128.186 72.0886 131.955 84.3956 127.048 94.5077C127.141 94.5686 127.234 94.6325 127.324 94.6964C128.474 95.5209 129.345 96.5371 129.92 97.7361ZM84.8637 61.9562C99.8707 51.6873 120.362 55.5342 130.625 70.5441C134.341 75.9819 136.205 82.1339 136.359 88.2627L137.056 88.0537C137.625 80.3658 135.688 72.437 131 65.5766C124.18 55.6126 113.156 50.2444 101.929 50.2212H101.566C94.8074 50.2793 87.9934 52.2767 81.9923 56.379C67.6241 66.2124 62.8104 84.7933 69.8131 100.108C70.4025 99.2052 70.9889 98.2993 71.5725 97.3877C70.507 93.2738 70.266 89.0292 70.8031 84.8949H69.607L70.7915 83.0514C70.928 82.8394 71.0702 82.6304 71.2183 82.4243C72.8877 74.3851 77.5503 66.9556 84.8637 61.9562ZM64.5205 80.9465C66.0011 70.5412 70.8322 61.2159 77.8842 54.0913C69.7115 60.9372 63.7046 70.277 61.0423 80.9465H64.5205ZM162.035 93.4654V93.3957C162.035 84.8456 159.934 76.8006 156.238 69.7108C158.502 75.2793 159.777 81.3588 159.777 87.7372C159.777 89.4734 159.681 91.1863 159.504 92.8731C160.392 92.9747 161.255 93.1635 162.035 93.4654ZM104.661 64.1395L104.609 64.2237C104.719 65.1905 106.301 85.9459 90.2579 87.8505C89.9821 86.9214 89.4479 86.1898 88.6379 85.7601C89.4857 82.2501 90.5454 78.8678 92.7577 75.9355C94.938 72.8144 97.6787 70.1028 100.84 68.0647C94.2587 71.7199 89.1199 78.1187 86.6898 85.3246C86.1847 85.3246 85.7085 85.4117 85.2672 85.5743C80.1255 69.1854 104.661 64.1395 104.661 64.1395Z" fill="white"/>
</svg>
