<svg width="200" height="200" viewBox="0 0 200 200" fill="none" xmlns="http://www.w3.org/2000/svg">
<path d="M18.8927 133.898H7V65.0342H54.477L49.3459 76.3805H18.8927V93.686H41.4744L36.3519 104.938H18.8927V133.898Z" fill="white"/>
<path d="M182.888 98.0657C187.575 94.5995 190.025 89.6392 190.025 83.4666C190.025 77.8831 187.729 73.1789 183.375 69.8493C179.226 66.6733 173.446 65 166.675 65H136.871V133.889H167.871C175.375 133.889 181.727 132.421 186.252 129.065C191.067 125.497 193.611 120.34 193.611 114.159C193.62 106.851 190.017 101.455 182.888 98.0657ZM168.059 122.978H148.73V104.879H166.769C173.523 104.879 181.582 106.407 181.582 113.698C181.582 119.512 176.519 122.978 168.059 122.978ZM165.48 93.7628H148.73V76.2097H166.027C176.818 76.2097 177.979 81.9896 177.979 84.474C177.988 92.8578 169.237 93.7628 165.48 93.7628Z" fill="white"/>
<path d="M68.1374 65.0342H58.2425L42.0469 100.746L58.1998 92.3797L63.1772 81.4688L66.3019 88.3074L76.4188 83.0568L68.1374 65.0342Z" fill="white"/>
<path d="M34.6949 116.686L32.2617 122.116L82.4707 96.2475L80.9083 93.063L34.6949 116.686Z" fill="white"/>
<path d="M46.0172 119.093L29.7106 127.597L26.8164 133.931L39.2641 133.948L46.0172 119.093Z" fill="white"/>
<path d="M77.9293 86.4204L39.5106 106.057L37.0859 111.461L79.4062 89.6647L77.9293 86.4204Z" fill="white"/>
<path d="M133.268 113.928C133.268 108.413 131.33 104.127 127.335 100.823C123.646 97.7669 118.276 95.5728 110.405 93.908C95.8568 90.8857 94.7384 87.8378 94.7384 83.8679C94.7384 79.1979 99.4255 75.9366 106.136 75.9366C112.411 75.9366 117.858 77.9343 123.279 82.2287L125.157 83.7142L132.218 74.6218L130.451 73.2473C123.177 67.5784 115.732 65.0513 106.315 65.0513C92.6809 65.0513 82.7774 73.2302 82.7774 84.4911C82.7774 90.3137 84.7752 94.7446 88.8903 98.0401C92.5955 101.011 97.9571 103.111 106.29 104.87C120.112 107.696 121.213 110.838 121.213 114.646C121.213 119.486 117.03 122.867 110.439 123.226C108.228 123.49 100.902 123.678 94.0981 121.604L83.9812 99.5256L73.8984 104.793L87.2767 133.932L99.7841 133.94L107.032 133.949C107.656 133.974 108.27 134 108.902 134C109.483 134 110.055 133.983 110.618 133.957H110.678C124.073 133.291 133.268 125.249 133.268 113.928Z" fill="white"/>
</svg>
