<svg width="200" height="200" viewBox="0 0 200 200" fill="none" xmlns="http://www.w3.org/2000/svg">
<path d="M18.1395 96.5315C18.1395 93.8929 16.107 92.3977 13.4558 92.3977H8.77209V106.646H13.4558C16.0628 106.646 18.1395 105.151 18.1395 102.512V96.5315ZM4 111V88H13.5C19.5535 88 23 91.4302 23 96.4876V102.512C23 107.614 19.5535 111 13.5 111H4Z" fill="white"/>
<path d="M41.3953 96.2937C41.3953 93.6859 39.4698 92.2751 36.9581 92.2751C34.4884 92.2751 32.5209 93.7286 32.5209 96.2937V102.749C32.5209 105.314 34.4465 106.768 36.9581 106.768C39.4279 106.768 41.3953 105.314 41.3953 102.749V96.2937ZM37 111C31.2651 111 28 107.665 28 102.749V96.2937C28 91.3346 31.2651 88 37 88C42.7349 88 46 91.3346 46 96.2937V102.749C45.9581 107.708 42.693 111 37 111Z" fill="white"/>
<path d="M63.4785 98.1147L59.5294 111H54.4642L50 88H54.6789L57.5119 103.568L62.062 88H64.938L69.4881 103.568L72.3211 88H77L72.4928 111H67.4706L63.4785 98.1147Z" fill="white"/>
<path d="M100.163 88H105V104.187C105 108.7 102.204 111 97.5 111C92.7959 111 90 108.7 90 104.187H94.8817C95.0148 105.792 95.9467 106.66 97.5 106.66C99.3639 106.66 100.163 105.532 100.163 104.057V88Z" fill="white"/>
<path d="M123.437 96.2937C123.437 93.6859 121.512 92.2751 119 92.2751C116.53 92.2751 114.563 93.7286 114.563 96.2937V102.749C114.563 105.314 116.488 106.768 119 106.768C121.47 106.768 123.437 105.314 123.437 102.749V96.2937ZM119 111C113.265 111 110 107.665 110 102.749V96.2937C110 91.3346 113.265 88 119 88C124.735 88 128 91.3346 128 96.2937V102.749C128 107.708 124.735 111 119 111Z" fill="white"/>
<path d="M152 111H147.172L137.828 96.1797V111H133V88H137.828L147.172 102.82V88H152V111Z" fill="white"/>
<path d="M163.04 97.1912H172.844V101.589H163.04V106.646H174V111H158V88H174V92.3977H163.04V97.1912Z" fill="white"/>
<path d="M178 103.604H182.748C183.003 105.485 184.613 106.725 186.903 106.725C188.938 106.725 190.337 106.041 190.337 104.502C190.337 103.262 189.531 102.535 187.835 102.151L183.766 101.125C180.077 100.184 178.254 97.79 178.254 94.4981C178.254 90.0093 182.027 88 186.267 88C191.1 88 194.067 90.6078 194.618 94.4126H189.87C189.446 92.9164 187.751 92.2324 186.224 92.2324C184.274 92.2324 182.918 92.9164 182.918 94.4981C182.918 95.8234 184.02 96.3792 185.334 96.7212L189.277 97.7045C193.007 98.645 195 100.74 195 104.502C195 108.52 192.16 111 186.945 111C181.646 110.957 178.212 108.05 178 103.604Z" fill="white"/>
</svg>
