<svg width="200" height="200" viewBox="0 0 200 200" fill="none" xmlns="http://www.w3.org/2000/svg">
<path d="M83.0243 105.375V111.222H86.3111C88.2003 111.222 89.4021 110.072 89.4021 108.329C89.4021 106.585 88.1958 105.407 86.3111 105.407L83.0243 105.375ZM79 102H86.6388C90.7724 102 93.5084 104.473 93.5084 108.324C93.5084 110.769 92.2473 112.708 90.3035 113.666L94 121H89.566L86.4203 114.62H83.0516V121H79.0273L79 102Z" fill="white"/>
<path d="M105.229 111.786C104.956 109.983 103.806 108.981 102.082 108.981C100.358 108.981 99.2118 110.042 99.0163 111.786H105.229ZM95 113.529C95 108.952 97.8155 106 102.055 106C106.321 106 108.945 108.746 109 113.028C109 113.471 108.973 113.942 108.891 114.389H98.9071V114.595C98.989 116.663 100.249 117.93 102.136 117.93C103.669 117.93 104.734 117.223 105.061 115.862H108.782C108.345 118.726 105.966 121 102.3 121C97.7609 121 95 118.078 95 113.529Z" fill="white"/>
<path d="M120.286 106H124V120.821H120.715L120.366 119.027C119.507 120.195 118.321 121 116.383 121C113.587 121 111 119.475 111 114.218V106H114.714V113.676C114.714 116.335 115.493 117.621 117.35 117.621C119.207 117.621 120.281 116.156 120.281 113.408L120.286 106Z" fill="white"/>
<path d="M126.027 102H129.756V106.16H132.865V109.599H129.756V116.093C129.756 117.143 130.134 117.561 131.082 117.561H133V121H129.891C127.298 121 126 119.592 126 116.75L126.027 102Z" fill="white"/>
<path d="M144.226 111.786C143.953 109.983 142.803 108.981 141.08 108.981C139.356 108.981 138.21 110.042 138.019 111.786H144.226ZM134 113.529C134 108.952 136.815 106 141.057 106C145.322 106 147.945 108.746 148 113.028C148 113.471 147.973 113.942 147.891 114.389H137.91V114.595C137.992 116.663 139.252 117.93 141.139 117.93C142.671 117.93 143.735 117.223 144.062 115.862H147.782C147.345 118.726 144.967 121 141.302 121C136.76 121 134 118.078 134 113.529Z" fill="white"/>
<path d="M159 106V109.751H157.382C154.972 109.751 154.058 111.386 154.058 113.653V121H150V106H153.676L154.058 108.238C154.85 106.905 155.998 106 158.32 106H159Z" fill="white"/>
<path d="M162.625 115.982C162.763 117.254 163.816 118.138 165.693 118.138C167.299 118.138 168.265 117.607 168.265 116.571C168.265 115.363 167.322 115.3 165.081 114.976C161.843 114.563 159.327 113.797 159.327 110.783C159.327 107.768 161.732 105.971 165.302 106C169.038 106 171.609 107.743 171.802 110.724H168.15C168.039 109.545 166.986 108.833 165.44 108.833C163.895 108.833 162.979 109.393 162.979 110.341C162.979 111.465 164.171 111.583 166.162 111.819C169.346 112.172 172 112.943 172 116.247C172 119.139 169.401 121 165.666 121C161.93 121 159.166 119.08 159 115.953L162.625 115.982Z" fill="white"/>
<path d="M78 79H93V82.5102H87.5024V98H83.47V82.5102H78V79Z" fill="white"/>
<path d="M108 90.2824V98H104.056V90.5904C104.056 88.318 103.115 87.0255 101.143 87.0255C99.1704 87.0255 97.9443 88.43 97.9443 90.8143V97.9673H94V79H97.9443V85.7611C98.8568 84.6645 100.145 83.8807 102.202 83.8807C105.372 83.9133 108 85.5697 108 90.2824Z" fill="white"/>
<path d="M120.062 91C120.062 88.685 118.702 87.0576 116.524 87.0576C114.345 87.0576 113.013 88.685 113.013 91C113.013 93.315 114.345 94.9424 116.524 94.9424C118.702 94.9424 120.062 93.315 120.062 91ZM109 91C109 86.7826 111.969 84 116.5 84C121.026 84 124 86.7826 124 91C124 95.2174 121.031 98 116.5 98C111.969 98 109 95.2174 109 91Z" fill="white"/>
<path d="M147 90.0429V97.9907H143.321V90.2655C143.321 88.202 142.603 87.117 141.003 87.117C139.403 87.117 138.339 88.3179 138.339 90.4371V97.9954H134.661V90.2701C134.661 88.2067 133.943 87.1216 132.316 87.1216C130.689 87.1216 129.679 88.3782 129.679 90.4695V98H126V84.1678H129.2L129.546 85.8974C130.344 84.8077 131.518 84.0287 133.49 84.0009C135.144 83.9731 136.664 84.5852 137.515 86.3426C138.45 84.8634 140.019 84.0009 142.045 84.0009C144.788 83.9916 146.973 85.6099 147 90.0429Z" fill="white"/>
<path d="M152.625 93.3166C152.763 94.5035 153.816 95.3284 155.693 95.3284C157.299 95.3284 158.265 94.8335 158.265 93.8666C158.265 92.7392 157.322 92.6797 155.054 92.3772C151.815 91.9923 149.299 91.2774 149.299 88.4637C149.299 85.6546 151.705 83.9728 155.275 84.0003C159.01 84.0003 161.581 85.6271 161.775 88.4087H158.122C158.012 87.3089 156.958 86.6445 155.413 86.6445C153.867 86.6445 152.952 87.1669 152.952 88.0513C152.952 89.0961 154.143 89.2107 156.162 89.4306C159.346 89.7606 162 90.48 162 93.5641C162 96.2632 159.401 98 155.666 98C151.93 98 149.166 96.2082 149 93.2891L152.625 93.3166Z" fill="white"/>
<path d="M174.042 91C174.042 88.685 172.682 87.0576 170.502 87.0576C168.323 87.0576 166.991 88.685 166.991 91C166.991 93.315 168.323 94.9424 170.502 94.9424C172.682 94.9424 174.042 93.315 174.042 91ZM163 91C163 86.7826 165.97 84 170.502 84C175.035 84 178 86.7826 178 91C178 95.2174 175.03 98 170.498 98C165.965 98 163 95.2174 163 91Z" fill="white"/>
<path d="M193 90.3325V98H189.056V90.694C189.056 88.353 188.143 87.1245 186.143 87.1245C184.17 87.1245 182.944 88.5199 182.944 90.9166V97.9954H179V84.1669H182.431L182.802 85.896C183.714 84.8066 185.031 84 187.259 84C190.344 84.0046 193 85.5947 193 90.3325Z" fill="white"/>
<path d="M59.8197 77.3207C60.5628 78.1522 61 79.2772 61 80.5C61 81.7228 60.6066 82.7989 59.8197 83.6793C58.2459 85.4402 55.7104 85.4402 54.1803 83.6793C53.4372 82.8478 53 81.7228 53 80.5C53 79.2772 53.3934 78.2011 54.1803 77.3207C54.9672 76.4402 55.9727 76 57.0219 76C58.0273 76 59.0328 76.4402 59.8197 77.3207Z" fill="white"/>
<path d="M14.3207 122.82C12.5598 121.246 12.5598 118.71 14.3207 117.18C15.1522 116.437 16.2772 116 17.5 116C18.6739 116 19.7989 116.393 20.6793 117.18C22.4402 118.754 22.4402 121.29 20.6793 122.82C19.8478 123.563 18.7228 124 17.5 124C16.3261 124 15.2011 123.607 14.3207 122.82Z" fill="white"/>
<path d="M46.1408 77.7324C45.267 77.3803 44.6117 76.6763 44.2621 75.8403C43.9126 74.9602 43.9126 74.0362 44.2621 73.1561C44.6117 72.2761 45.3107 71.616 46.1408 71.264C46.5777 71.088 47.0146 71 47.4952 71C47.9321 71 48.4127 71.088 48.8496 71.264C50.6409 72.0121 51.471 74.0802 50.7283 75.8403C49.9856 77.6003 47.9321 78.4804 46.1408 77.7324Z" fill="white"/>
<path d="M26.478 122C26.9171 122 27.4 122.088 27.8391 122.264C29.6391 123.013 30.4733 125.082 29.727 126.843C29.3757 127.723 28.6733 128.384 27.8391 128.736C26.961 129.088 26.039 129.088 25.1609 128.736C23.3609 127.987 22.5267 125.918 23.273 124.157C23.6243 123.277 24.3267 122.616 25.1609 122.264C25.5561 122.088 25.9951 122 26.478 122Z" fill="white"/>
<path d="M40 72C40 73.6324 38.7206 74.9559 37.1324 75H37C35.3235 75 34 73.6324 34 72C34 70.3676 35.3676 69 37 69C38.6324 69 40 70.3235 40 72Z" fill="white"/>
<path d="M37 131C38.6569 131 40 129.657 40 128C40 126.343 38.6569 125 37 125C35.3431 125 34 126.343 34 128C34 129.657 35.3431 131 37 131Z" fill="white"/>
<path d="M27.1446 76.7642C26.4129 77.0786 25.5767 77.0786 24.8449 76.7642C24.1132 76.4498 23.5383 75.8734 23.2247 75.1397C22.5976 73.6201 23.3293 71.8384 24.8449 71.2096C25.2108 71.0524 25.5767 71 25.9948 71C27.1446 71 28.2944 71.6812 28.7648 72.8341C29.0784 73.5677 29.0784 74.4061 28.7648 75.1397C28.4512 75.8734 27.8763 76.4498 27.1446 76.7642Z" fill="white"/>
<path d="M46.8522 123.21C47.2174 123.052 47.6348 123 48 123C48.3652 123 48.7826 123.105 49.1478 123.21C49.8783 123.524 50.4522 124.1 50.7652 124.834C51.0783 125.568 51.0783 126.406 50.7652 127.14C50.4522 127.873 49.8783 128.45 49.1478 128.764C48.4174 129.079 47.5826 129.079 46.8522 128.764C46.1217 128.45 45.5478 127.873 45.2348 127.14C44.9217 126.406 44.9217 125.568 45.2348 124.834C45.5478 124.1 46.0696 123.524 46.8522 123.21Z" fill="white"/>
<path d="M19.4083 79.5683C20.1898 80.3552 20.1898 81.5792 19.4517 82.3661L19.4083 82.4098C18.6268 83.1967 17.3677 83.1967 16.5861 82.4098C15.8046 81.623 15.8046 80.3552 16.5861 79.5683C16.9769 79.1749 17.4979 79 17.9755 79C18.4965 79 19.0176 79.2186 19.4083 79.5683Z" fill="white"/>
<path d="M54.6154 117.575C55.011 117.177 55.5385 117 56.022 117C56.5055 117 57.033 117.177 57.4286 117.575C57.8242 117.972 58 118.459 58 118.989C58 119.519 57.7802 120.05 57.4286 120.403C56.6374 121.199 55.3626 121.199 54.5714 120.403C54.1758 120.006 54 119.519 54 118.989C54 118.459 54.2198 117.972 54.6154 117.575Z" fill="white"/>
<path d="M9.84817 91.7642C8.32984 91.1354 7.59686 89.3537 8.22513 87.8341C8.53927 87.1004 9.11518 86.524 9.84817 86.2096C10.2147 86.0524 10.6335 86 11 86C11.3665 86 11.7853 86.0524 12.1518 86.2096C13.6702 86.8384 14.4031 88.6201 13.7749 90.1397C13.4607 90.8734 12.8848 91.4498 12.1518 91.7642C11.4188 92.0786 10.5812 92.0786 9.84817 91.7642Z" fill="white"/>
<path d="M64.1478 108.21C64.8783 108.525 65.4522 109.102 65.7652 109.837C66.0783 110.572 66.0783 111.412 65.7652 112.147C65.1391 113.669 63.4174 114.404 61.8522 113.774C61.1217 113.459 60.5478 112.882 60.2348 112.147C59.9217 111.412 59.9217 110.572 60.2348 109.837C60.7043 108.682 61.8 108 63 108C63.4174 108 63.7826 108.052 64.1478 108.21Z" fill="white"/>
<path d="M9 103C10.6569 103 12 101.657 12 100C12 98.3431 10.6569 97 9 97C7.34315 97 6 98.3431 6 100C6 101.657 7.34315 103 9 103Z" fill="white"/>
<path d="M65 103C66.6569 103 68 101.657 68 100C68 98.3431 66.6569 97 65 97C63.3431 97 62 98.3431 62 100C62 101.657 63.3431 103 65 103Z" fill="white"/>
<path d="M8.27342 111.843C7.52602 110.038 8.36135 108.013 10.1639 107.264C11.0432 106.912 11.9664 106.912 12.8457 107.264C13.725 107.616 14.3845 108.321 14.7362 109.157C15.0879 109.994 15.0879 110.962 14.7362 111.843C14.3845 112.723 13.6811 113.384 12.8457 113.736C11.9664 114.088 11.0432 114.088 10.1639 113.736C9.28461 113.384 8.62514 112.723 8.27342 111.843Z" fill="white"/>
<path d="M59.2638 90.8428C58.9121 89.9623 58.9121 89.0377 59.2638 88.1572C59.6155 87.2767 60.3189 86.6163 61.1543 86.2641C61.5939 86.088 62.0336 86 62.4732 86C63.8361 86 65.155 86.8365 65.7266 88.1572C66.474 89.9623 65.6386 91.9874 63.8361 92.7358C62.9568 93.0881 62.0336 93.0881 61.1543 92.7358C60.3189 92.3836 59.6155 91.7233 59.2638 90.8428Z" fill="white"/>
<path d="M45.967 108.986C44.8485 110.113 44.8485 111.898 45.967 113.025C47.0854 114.153 48.8563 114.153 49.9748 113.025C50.534 112.462 50.8136 111.757 50.8136 111.006C50.8136 110.254 50.534 109.503 49.9748 108.986C49.4155 108.423 48.7165 108.141 47.9709 108.141C47.2252 108.141 46.5262 108.423 45.967 108.986ZM45.8738 108.845C44.7087 110.02 44.7087 111.945 45.8738 113.119C47.0388 114.294 48.9495 114.294 50.1146 113.119C50.6738 112.556 51 111.804 51 111.006C51 110.207 50.6738 109.456 50.1146 108.892C49.5553 108.329 48.7631 108 48.0175 108C47.2718 108 46.433 108.282 45.8738 108.845Z" fill="white"/>
<path d="M21.4808 97.9219C20.4187 97.6474 19.7893 96.5492 20.0646 95.4903C20.222 94.9805 20.5367 94.5491 21.0087 94.2745C21.3235 94.0784 21.6775 94 21.9922 94C22.1496 94 22.3463 94.0392 22.5036 94.0784C23.015 94.2353 23.4477 94.5491 23.7231 95.0197C23.9985 95.4903 24.0772 96.0394 23.9198 96.5492C23.6444 97.5689 22.543 98.2357 21.4808 97.9219Z" fill="white"/>
<path d="M51.4964 105.947C50.985 105.791 50.5523 105.478 50.2769 105.009C50.0015 104.54 49.9228 103.993 50.0802 103.485C50.2376 102.977 50.5523 102.547 51.0243 102.274C51.339 102.078 51.6931 102 52.0078 102C52.1651 102 52.2832 102 52.4405 102.039L52.5192 102.078C53.5813 102.352 54.2107 103.446 53.9354 104.501C53.778 105.009 53.4633 105.439 52.9912 105.713C52.5192 105.986 52.0078 106.064 51.4964 105.947Z" fill="white"/>
<path d="M20.0574 104.514C19.8351 103.488 20.2798 102.462 21.0209 102.12L21.095 102.071C21.9102 101.778 22.7254 102.413 22.9478 103.488C23.0589 104.026 22.9848 104.514 22.7995 105.003C22.6143 105.443 22.2808 105.785 21.8732 105.931C21.4655 106.078 21.095 105.98 20.7244 105.736C20.428 105.491 20.1686 105.052 20.0574 104.514Z" fill="white"/>
<path d="M51.7493 97.7357L51.6761 97.6869C51.3831 97.3937 51.1268 97.0029 51.0536 96.5143C50.8339 95.4395 51.3099 94.3646 52.1155 94.0715C52.9211 93.7783 53.7267 94.4135 53.9464 95.4883C54.1661 96.5632 53.6901 97.638 52.8845 97.9311C52.5183 98.0777 52.1155 97.98 51.7493 97.7357Z" fill="white"/>
<path d="M26.6066 112.513C25.9672 113.154 25.0328 113.154 24.4426 112.562C23.8525 111.971 23.8525 111.035 24.4426 110.444C25.0328 109.852 25.9672 109.852 26.5574 110.444C26.8525 110.739 27 111.084 27 111.528C27 111.873 26.8525 112.218 26.6066 112.513Z" fill="white"/>
<path d="M49.5574 87.4355C49.8525 87.7258 50 88.0645 50 88.5C50 88.9355 49.8525 89.2742 49.5574 89.5645C48.9672 90.1452 48.0328 90.1452 47.4426 89.5645C47.1475 89.2742 47 88.9355 47 88.5C47 88.0645 47.1475 87.7258 47.4426 87.4355C47.7377 87.1452 48.082 87 48.5246 87C48.9672 87 49.3115 87.1936 49.5574 87.4355Z" fill="white"/>
<path d="M34.7357 114.746C34.98 115.075 35.0777 115.478 34.9311 115.88C34.7846 116.282 34.4426 116.574 34.0029 116.794C33.5632 117.013 33.0257 117.05 32.4883 116.94C31.4135 116.721 30.7783 115.916 31.0715 115.112C31.2181 114.71 31.56 114.417 31.9997 114.198C32.4395 114.015 32.9769 113.942 33.5143 114.052C34.0029 114.161 34.4426 114.417 34.7357 114.746Z" fill="white"/>
<path d="M39.2645 85.2464C39.02 84.915 38.9222 84.5099 39.0689 84.1048C39.2156 83.6997 39.5578 83.4051 39.9978 83.1841C40.2911 83.0368 40.6333 83 40.9756 83C41.1711 83 41.3178 83 41.5133 83.0368C42.0511 83.1473 42.4422 83.4051 42.7355 83.7365C42.98 84.068 43.0778 84.4731 42.9311 84.8782C42.6378 85.6883 41.5622 86.1671 40.4867 85.9461C39.9978 85.8356 39.5578 85.6147 39.2645 85.2464Z" fill="white"/>
<path d="M42.04 113.311L42.1179 113.349C42.5464 113.621 42.8191 114.009 42.936 114.514C43.2087 115.562 42.5854 116.649 41.5336 116.921C41.0272 117.076 40.4818 116.998 40.0143 116.727C39.5469 116.455 39.2352 116.028 39.0794 115.523C38.9236 115.019 39.0015 114.475 39.2742 114.009C39.5469 113.543 39.9754 113.233 40.4818 113.078C40.6376 113.039 40.8324 113 40.9882 113C41.3778 113.039 41.7284 113.116 42.04 113.311Z" fill="white"/>
<path d="M33.5134 86.9353C32.4471 87.2108 31.3413 86.5812 31.0649 85.5186C30.7884 84.4561 31.4203 83.3542 32.4866 83.0787C32.6446 83.0394 32.842 83 33 83C33.8688 83 34.6982 83.5903 34.9351 84.4954C35.2116 85.558 34.5797 86.6205 33.5134 86.9353Z" fill="white"/>
<path d="M26 92C27.6569 92 29 90.6569 29 89C29 87.3431 27.6569 86 26 86C24.3431 86 23 87.3431 23 89C23 90.6569 24.3431 92 26 92Z" fill="white"/>
</svg>
